# Wavefront Obj file
# 
# verts: 176 uv-s: 344
mtllib export3dcoat.mtl

g PanneauTri

v -35.494099 -31.794802 0.000000
v -33.726200 -34.655296 0.000000
v -31.279100 -36.019699 0.000000
v -3.511900 35.220505 0.000000
v 35.620098 -28.995800 0.000000
v 33.726200 -34.655296 0.000000
v 31.279100 -36.019699 0.000000
v 35.494099 -31.794802 0.000000
v 1.190700 36.655106 0.000000
v 3.511900 35.220505 0.000000
v -1.190700 36.655106 0.000000
v -35.620098 -28.995800 0.000000
v -3.511900 35.220505 -7.405800
v -35.620098 -28.995800 -7.405800
v 35.620098 -28.995800 -7.405800
v 3.511900 35.220505 -7.405800
v -31.279100 -36.019699 -7.405800
v 31.279100 -36.019699 -7.405800
v -35.494099 -31.794802 -7.405800
v -33.726200 -34.655296 -7.405800
v 33.726200 -34.655296 -7.405800
v 35.494099 -31.794802 -7.405800
v 1.190700 36.655106 -7.405800
v -1.190700 36.655106 -7.405800
v -3.319300 32.743202 -7.405800
v -33.665798 -27.949900 -7.405800
v 33.665798 -27.949900 -7.405800
v 3.319300 32.743202 -7.405800
v -29.562901 -34.588402 -7.405800
v 29.562901 -34.588402 -7.405800
v -33.546700 -30.595301 -7.405800
v -31.875900 -33.298798 -7.405800
v 31.875900 -33.298798 -7.405800
v 33.546700 -30.595301 -7.405800
v 1.125400 34.099098 -7.405800
v -1.125400 34.099098 -7.405800
v -3.319300 32.743202 -2.647000
v -33.665798 -27.949900 -2.647000
v 33.665798 -27.949900 -2.647000
v 3.319300 32.743202 -2.647000
v -29.562901 -34.588402 -2.647000
v 29.562901 -34.588402 -2.647000
v -33.546700 -30.595301 -2.647000
v -31.875900 -33.298798 -2.647000
v 31.875900 -33.298798 -2.647000
v 33.546700 -30.595301 -2.647000
v 1.125400 34.099098 -2.647000
v -1.125400 34.099098 -2.647000
v 10.064900 -30.176300 -17.243900
v 10.064900 -25.968100 -17.243900
v 10.064900 -25.968100 -2.675000
v 10.064900 -30.176300 -2.675000
v -10.064900 -30.176300 -17.243900
v -10.064900 -25.968100 -17.243900
v -10.064900 -30.176300 -2.675000
v -10.064900 -25.968100 -2.675000
v 10.064900 -1.471500 -17.243900
v 10.064900 2.736800 -17.243900
v 10.064900 2.736800 -2.675000
v 10.064900 -1.471500 -2.675000
v -10.064900 -1.471500 -17.243900
v -10.064900 2.736800 -17.243900
v -10.064900 -1.471500 -2.675000
v -10.064900 2.736800 -2.675000
v 15.520900 -25.968100 -2.675000
v 15.520900 -30.176300 -2.675000
v -15.520900 -30.176300 -2.675000
v -15.520900 -25.968100 -2.675000
v 15.520900 2.736800 -2.675000
v 15.520900 -1.471500 -2.675000
v -15.520900 -1.471500 -2.675000
v -15.520900 2.736800 -2.675000
v 12.146700 -26.772301 -3.305600
v 11.535000 -27.831900 -3.305600
v 11.535000 -27.831900 -2.744400
v 12.146700 -26.772301 -2.744400
v 13.370200 -26.772301 -3.305600
v 13.370200 -26.772301 -2.744400
v 13.981900 -27.831900 -3.305600
v 13.981900 -27.831900 -2.744400
v 13.370200 -28.891399 -3.305600
v 13.370200 -28.891399 -2.744400
v 12.146700 -28.891399 -3.305600
v 12.146700 -28.891399 -2.744400
v 12.232600 -27.172400 -4.359900
v 11.915000 -27.831900 -4.359900
v 11.915000 -27.831900 -2.744400
v 12.232600 -27.172400 -2.744400
v 12.946100 -27.009600 -4.359900
v 12.946100 -27.009600 -2.744400
v 13.518400 -27.465900 -4.359900
v 13.518400 -27.465900 -2.744400
v 13.518400 -28.197800 -4.359900
v 13.518400 -28.197800 -2.744400
v 12.946100 -28.654200 -4.359900
v 12.946100 -28.654200 -2.744400
v 12.232600 -28.491301 -4.359900
v 12.232600 -28.491301 -2.744400
v 12.146700 1.565600 -3.305600
v 11.535000 0.506000 -3.305600
v 11.535000 0.506000 -2.744400
v 12.146700 1.565600 -2.744400
v 13.370200 1.565600 -3.305600
v 13.370200 1.565600 -2.744400
v 13.981900 0.506000 -3.305600
v 13.981900 0.506000 -2.744400
v 13.370200 -0.553500 -3.305600
v 13.370200 -0.553500 -2.744400
v 12.146700 -0.553500 -3.305600
v 12.146700 -0.553500 -2.744400
v 12.232600 1.165500 -4.359900
v 11.915000 0.506000 -4.359900
v 11.915000 0.506000 -2.744400
v 12.232600 1.165500 -2.744400
v 12.946100 1.328300 -4.359900
v 12.946100 1.328300 -2.744400
v 13.518400 0.872000 -4.359900
v 13.518400 0.872000 -2.744400
v 13.518400 0.140100 -4.359900
v 13.518400 0.140100 -2.744400
v 12.946100 -0.316200 -4.359900
v 12.946100 -0.316200 -2.744400
v 12.232600 -0.153400 -4.359900
v 12.232600 -0.153400 -2.744400
v -13.377400 1.565600 -3.305600
v -13.989200 0.506000 -3.305600
v -13.989200 0.506000 -2.744400
v -13.377400 1.565600 -2.744400
v -12.154000 1.565600 -3.305600
v -12.154000 1.565600 -2.744400
v -11.542300 0.506000 -3.305600
v -11.542300 0.506000 -2.744400
v -12.154000 -0.553500 -3.305600
v -12.154000 -0.553500 -2.744400
v -13.377400 -0.553500 -3.305600
v -13.377400 -0.553500 -2.744400
v -13.291600 1.165500 -4.359900
v -13.609200 0.506000 -4.359900
v -13.609200 0.506000 -2.744400
v -13.291600 1.165500 -2.744400
v -12.578000 1.328300 -4.359900
v -12.578000 1.328300 -2.744400
v -12.005800 0.872000 -4.359900
v -12.005800 0.872000 -2.744400
v -12.005800 0.140100 -4.359900
v -12.005800 0.140100 -2.744400
v -12.578000 -0.316200 -4.359900
v -12.578000 -0.316200 -2.744400
v -13.291600 -0.153400 -4.359900
v -13.291600 -0.153400 -2.744400
v -13.377400 -26.772301 -3.305600
v -13.989200 -27.831900 -3.305600
v -13.989200 -27.831900 -2.744400
v -13.377400 -26.772301 -2.744400
v -12.154000 -26.772301 -3.305600
v -12.154000 -26.772301 -2.744400
v -11.542300 -27.831900 -3.305600
v -11.542300 -27.831900 -2.744400
v -12.154000 -28.891399 -3.305600
v -12.154000 -28.891399 -2.744400
v -13.377400 -28.891399 -3.305600
v -13.377400 -28.891399 -2.744400
v -13.291600 -27.172400 -4.359900
v -13.609200 -27.831900 -4.359900
v -13.609200 -27.831900 -2.744400
v -13.291600 -27.172400 -2.744400
v -12.578000 -27.009600 -4.359900
v -12.578000 -27.009600 -2.744400
v -12.005800 -27.465900 -4.359900
v -12.005800 -27.465900 -2.744400
v -12.005800 -28.197800 -4.359900
v -12.005800 -28.197800 -2.744400
v -12.578000 -28.654200 -4.359900
v -12.578000 -28.654200 -2.744400
v -13.291600 -28.491301 -4.359900
v -13.291600 -28.491301 -2.744400
# 176 positions

vt 0.015384 0.988188
vt 0.001143 0.965098
vt 0.000148 0.942517
vt 0.614319 0.999744
vt 0.292610 0.485404
vt 0.244947 0.478608
vt 0.226262 0.491325
vt 0.271968 0.476196
vt 0.641664 0.971012
vt 0.639707 0.949085
vt 0.633056 0.988188
vt 0.035121 0.999216
vt 0.066696 0.644343
vt 0.066696 0.065141
vt 0.126442 0.065141
vt 0.126442 0.644343
vt 0.060332 0.199303
vt 0.060332 0.778505
vt 0.000586 0.778505
vt 0.000586 0.199303
vt 0.828481 0.444872
vt 0.828481 0.949553
vt 0.768735 0.949553
vt 0.768735 0.444872
vt 0.828481 0.972156
vt 0.828480 0.999284
vt 0.768735 0.999284
vt 0.768736 0.972156
vt 0.828480 0.395141
vt 0.828481 0.422269
vt 0.768736 0.422269
vt 0.768736 0.395141
vt 0.066696 0.043127
vt 0.066696 0.023915
vt 0.126442 0.023915
vt 0.126442 0.043127
vt 0.066696 0.666946
vt 0.126442 0.666946
vt 0.060332 0.177289
vt 0.000586 0.177289
vt 0.060332 0.801108
vt 0.000586 0.801108
vt 0.180687 0.160316
vt 0.759862 0.160316
vt 0.742679 0.170645
vt 0.195283 0.170643
vt 0.152882 0.051433
vt 0.732057 0.051969
vt 0.717451 0.062283
vt 0.170056 0.061778
vt 0.964619 0.112395
vt 0.460351 0.091557
vt 0.474661 0.080592
vt 0.951262 0.100286
vt 0.146686 0.194397
vt 0.160947 0.171322
vt 0.176627 0.181045
vt 0.163148 0.202853
vt 1.000000 0.079743
vt 0.984798 0.102211
vt 0.970336 0.090662
vt 0.984702 0.069426
vt 0.778591 0.171890
vt 0.787184 0.189076
vt 0.768503 0.197828
vt 0.760381 0.181585
vt 0.134142 0.062991
vt 0.152344 0.072702
vt 0.441081 0.079743
vt 0.456447 0.069426
vt 0.751787 0.062993
vt 0.736099 0.072702
vt 0.720592 0.150786
vt 0.173164 0.150785
vt 0.173164 0.112395
vt 0.720592 0.112395
vt 0.875677 0.430141
vt 0.875677 0.977569
vt 0.837286 0.977569
vt 0.837286 0.430141
vt 0.884482 0.952997
vt 0.884482 0.476003
vt 0.922873 0.476003
vt 0.922872 0.952997
vt 0.884482 0.454639
vt 0.884482 0.429000
vt 0.922873 0.429000
vt 0.922873 0.454639
vt 0.884482 1.000000
vt 0.884482 0.974361
vt 0.922872 0.974361
vt 0.922872 1.000000
vt 0.152357 0.150786
vt 0.134200 0.150786
vt 0.134199 0.112395
vt 0.152357 0.112395
vt 0.741955 0.150786
vt 0.741955 0.112395
vt 0.875677 0.409335
vt 0.837286 0.409335
vt 0.875677 0.998932
vt 0.837286 0.998932
vt 0.750678 0.779444
vt 0.734436 0.787564
vt 0.713713 0.785696
vt 0.761620 0.214321
vt 0.281432 0.394533
vt 0.267092 0.437718
vt 0.275778 0.457238
vt 0.269395 0.412183
vt 0.729407 0.182182
vt 0.708065 0.181222
vt 0.751217 0.195662
vt 0.761620 0.761739
vt 0.930216 0.837734
vt 0.964165 0.837734
vt 0.964168 0.955267
vt 0.930218 0.955268
vt 0.930217 0.675339
vt 0.964166 0.675339
vt 0.964165 0.837734
vt 0.930216 0.837734
vt 0.930219 0.557807
vt 0.964168 0.557808
vt 0.964166 0.675339
vt 0.930217 0.675339
vt 0.295859 0.010138
vt 0.295859 0.044088
vt 0.178324 0.044087
vt 0.178325 0.010137
vt 0.458254 0.010139
vt 0.458254 0.044088
vt 0.295859 0.044088
vt 0.295859 0.010138
vt 0.575785 0.010138
vt 0.575785 0.044087
vt 0.458254 0.044088
vt 0.458254 0.010139
vt 0.964169 0.999283
vt 0.930219 0.999284
vt 0.930218 0.955268
vt 0.964168 0.955267
vt 0.930220 0.513792
vt 0.964169 0.513793
vt 0.964168 0.557808
vt 0.930219 0.557807
vt 0.134308 0.044087
vt 0.134308 0.010137
vt 0.178325 0.010137
vt 0.178324 0.044087
vt 0.619799 0.010138
vt 0.619800 0.044087
vt 0.575785 0.044087
vt 0.575785 0.010138
vt 0.019946 0.870523
vt 0.019945 0.860652
vt 0.024472 0.860652
vt 0.024473 0.870522
vt 0.011398 0.875458
vt 0.022209 0.874444
vt 0.013662 0.879379
vt 0.002850 0.870522
vt 0.009134 0.879379
vt 0.000586 0.874443
vt 0.005114 0.989451
vt 0.005114 0.999321
vt 0.000586 0.999321
vt 0.000586 0.989451
vt 0.011398 0.855718
vt 0.002850 0.860653
vt 0.000586 0.856732
vt 0.009135 0.851797
vt 0.013662 0.851797
vt 0.022209 0.856732
vt 0.019946 0.870523
vt 0.011398 0.875458
vt 0.002850 0.870522
vt 0.011398 0.855718
vt 0.002850 0.860653
vt 0.019945 0.860652
vt 0.147341 0.613877
vt 0.147341 0.619781
vt 0.134308 0.619781
vt 0.134308 0.613877
vt 0.147341 0.607972
vt 0.134308 0.607972
vt 0.147341 0.602067
vt 0.134308 0.602067
vt 0.147341 0.596163
vt 0.134308 0.596163
vt 0.147341 0.590258
vt 0.134308 0.590258
vt 0.147341 0.584353
vt 0.134308 0.584353
vt 0.147341 0.625686
vt 0.134308 0.625686
vt 0.034017 0.822047
vt 0.038633 0.818366
vt 0.044390 0.819680
vt 0.038633 0.831633
vt 0.046952 0.825000
vt 0.044390 0.830320
vt 0.034017 0.827952
vt 0.021623 0.825256
vt 0.013075 0.820321
vt 0.015339 0.816400
vt 0.023888 0.821335
vt 0.021623 0.835126
vt 0.026151 0.825256
vt 0.026151 0.835126
vt 0.013075 0.840061
vt 0.023888 0.839047
vt 0.015339 0.843982
vt 0.004528 0.835126
vt 0.010811 0.843982
vt 0.002265 0.839047
vt 0.004528 0.825256
vt 0.000000 0.835126
vt 0.000000 0.825256
vt 0.002265 0.821335
vt 0.010811 0.816400
vt 0.021623 0.825256
vt 0.021623 0.835126
vt 0.013075 0.840061
vt 0.004528 0.825256
vt 0.004528 0.835126
vt 0.013075 0.820321
vt 0.175604 0.569855
vt 0.169699 0.569855
vt 0.169699 0.556822
vt 0.175604 0.556822
vt 0.140176 0.569855
vt 0.134272 0.569855
vt 0.134272 0.556822
vt 0.140176 0.556822
vt 0.146082 0.569855
vt 0.146082 0.556822
vt 0.151986 0.569855
vt 0.151986 0.556822
vt 0.157890 0.569855
vt 0.157890 0.556822
vt 0.163795 0.569855
vt 0.163795 0.556822
vt 0.112830 0.685240
vt 0.114144 0.690996
vt 0.110463 0.695613
vt 0.102191 0.685240
vt 0.104559 0.695613
vt 0.100878 0.690996
vt 0.107511 0.682678
vt 0.071975 0.722998
vt 0.071975 0.732868
vt 0.067447 0.732868
vt 0.067447 0.722997
vt 0.080522 0.718063
vt 0.069711 0.719077
vt 0.078259 0.714142
vt 0.089070 0.722998
vt 0.082786 0.714142
vt 0.091334 0.719077
vt 0.089070 0.732868
vt 0.093597 0.722998
vt 0.093597 0.732868
vt 0.080523 0.737803
vt 0.091334 0.736789
vt 0.082786 0.741724
vt 0.078259 0.741724
vt 0.069711 0.736790
vt 0.071975 0.722998
vt 0.080522 0.718063
vt 0.089070 0.722998
vt 0.080523 0.737803
vt 0.089070 0.732868
vt 0.071975 0.732868
vt 0.410350 0.604003
vt 0.410350 0.598098
vt 0.423383 0.598098
vt 0.423383 0.604003
vt 0.410350 0.609908
vt 0.423383 0.609908
vt 0.410350 0.615813
vt 0.423383 0.615813
vt 0.410350 0.621717
vt 0.423383 0.621717
vt 0.410350 0.586289
vt 0.410350 0.580384
vt 0.423383 0.580384
vt 0.423383 0.586289
vt 0.410350 0.592193
vt 0.423383 0.592193
vt 0.079400 0.752101
vt 0.080714 0.757858
vt 0.077033 0.762474
vt 0.068761 0.752101
vt 0.071128 0.762474
vt 0.067447 0.757858
vt 0.074080 0.749539
vt 0.088484 0.697471
vt 0.088484 0.687601
vt 0.093012 0.687601
vt 0.093011 0.697472
vt 0.079937 0.702407
vt 0.090748 0.701393
vt 0.082200 0.706327
vt 0.071389 0.697471
vt 0.077673 0.706327
vt 0.069125 0.701392
vt 0.071389 0.687601
vt 0.066861 0.697471
vt 0.066861 0.687601
vt 0.079936 0.682666
vt 0.069125 0.683681
vt 0.077672 0.678745
vt 0.082200 0.678745
vt 0.090748 0.683681
vt 0.088484 0.697471
vt 0.079937 0.702407
vt 0.071389 0.697471
vt 0.079936 0.682666
vt 0.071389 0.687601
vt 0.088484 0.687601
vt 0.431981 0.619761
vt 0.431981 0.613856
vt 0.445014 0.613856
vt 0.445014 0.619761
vt 0.431981 0.625666
vt 0.445014 0.625666
vt 0.431981 0.631570
vt 0.445014 0.631570
vt 0.431981 0.637475
vt 0.445014 0.637475
vt 0.431981 0.643379
vt 0.445014 0.643379
vt 0.431981 0.649284
vt 0.445014 0.649284
vt 0.431981 0.607951
vt 0.445014 0.607951
vt 0.398070 0.584353
vt 0.401751 0.588970
vt 0.400438 0.594726
vt 0.388483 0.588970
vt 0.395118 0.597288
vt 0.389797 0.594727
vt 0.392164 0.584353
# 344 texture coordinates

vn -0.000000 -0.000000 1.000000
vn -0.902493 0.430704 -0.000000
vn -0.885605 0.464439 -0.000000
vn 0.885605 0.464439 -0.000000
vn 0.902493 0.430704 -0.000000
vn 0.020984 -0.999780 -0.000000
vn -0.020984 -0.999780 -0.000000
vn -0.707936 -0.706277 -0.000000
vn -0.948311 -0.317343 -0.000000
vn 0.948311 -0.317343 -0.000000
vn 0.707936 -0.706277 -0.000000
vn -0.291790 0.956483 -0.000000
vn 0.291790 0.956483 -0.000000
vn -0.000000 -0.000000 -1.000000
vn -0.000000 -0.000000 -1.000000
vn -0.000000 -0.000000 -1.000000
vn -0.000000 -0.000000 -1.000000
vn 0.902494 -0.430702 -0.000000
vn 0.885605 -0.464439 -0.000000
vn -0.885605 -0.464439 -0.000000
vn -0.902494 -0.430702 -0.000000
vn -0.020985 0.999780 -0.000000
vn 0.020985 0.999780 -0.000000
vn 0.707931 0.706282 -0.000000
vn 0.948314 0.317334 -0.000000
vn -0.948314 0.317334 -0.000000
vn -0.707931 0.706282 -0.000000
vn 0.291784 -0.956484 -0.000000
vn -0.291784 -0.956484 -0.000000
vn 1.000000 -0.000000 -0.000000
vn -0.000000 -0.000000 -1.000000
vn -1.000000 -0.000000 -0.000000
vn -0.500016 0.866016 -0.000000
vn 0.500027 0.866010 -0.000000
vn 0.499991 -0.866030 -0.000000
vn -0.499981 -0.866036 -0.000000
vn -0.623483 0.781837 -0.000000
vn 0.222539 0.974924 -0.000000
vn 0.900956 0.433910 -0.000000
vn 0.900963 -0.433895 -0.000000
vn 0.222539 -0.974924 -0.000000
vn -0.623460 -0.781855 -0.000000
# 42 normals

usemtl default
f 1/1/1 2/2/1 3/3/1 4/4/1
f 5/5/1 4/4/1 3/3/1 6/6/1
f 3/3/1 7/7/1 6/6/1
f 6/6/1 8/8/1 5/5/1
f 9/9/1 4/4/1 5/5/1 10/10/1
f 9/9/1 11/11/1 4/4/1
f 12/12/1 1/1/1 4/4/1
f 12/13/2 4/14/3 13/15/3 14/16/2
f 10/17/4 5/18/5 15/19/5 16/20/4
f 7/21/6 3/22/7 17/23/7 18/24/6
f 2/25/8 1/26/9 19/27/9 20/28/8
f 8/29/10 6/30/11 21/31/11 22/32/10
f 11/33/12 9/34/13 23/35/13 24/36/12
f 1/37/9 12/13/2 14/16/2 19/38/9
f 6/30/11 7/21/6 18/24/6 21/31/11
f 9/39/13 10/17/4 16/20/4 23/40/13
f 3/22/7 2/25/8 20/28/8 17/23/7
f 5/18/5 8/41/10 22/42/10 15/19/5
f 4/14/3 11/33/12 24/36/12 13/15/3
f 14/43/14 13/44/14 25/45/14 26/46/14
f 16/47/14 15/48/15 27/49/15 28/50/15
f 18/51/16 17/52/14 29/53/17 30/54/16
f 20/55/14 19/56/14 31/57/14 32/58/14
f 22/59/15 21/60/17 33/61/17 34/62/15
f 24/63/14 23/64/14 35/65/14 36/66/14
f 19/56/14 14/43/14 26/46/14 31/57/14
f 21/60/17 18/51/16 30/54/16 33/61/17
f 23/67/14 16/47/14 28/50/15 35/68/14
f 17/52/14 20/69/14 32/70/14 29/53/17
f 15/48/15 22/71/15 34/72/15 27/49/15
f 13/44/14 24/63/14 36/66/14 25/45/14
f 26/73/18 25/74/19 37/75/19 38/76/18
f 28/77/20 27/78/21 39/79/21 40/80/20
f 30/81/22 29/82/23 41/83/23 42/84/22
f 32/85/24 31/86/25 43/87/25 44/88/24
f 34/89/26 33/90/27 45/91/27 46/92/26
f 36/93/28 35/94/29 47/95/29 48/96/28
f 31/97/25 26/73/18 38/76/18 43/98/25
f 33/90/27 30/81/22 42/84/22 45/91/27
f 35/99/29 28/77/20 40/80/20 47/100/29
f 29/82/23 32/85/24 44/88/24 41/83/23
f 27/78/21 34/101/26 46/102/26 39/79/21
f 25/74/19 36/93/28 48/96/28 37/75/19
f 48/103/14 47/104/14 40/105/14 38/106/14
f 42/107/14 38/106/14 40/105/14 46/108/14
f 40/105/14 39/109/14 46/108/14
f 46/108/14 45/110/14 42/107/14
f 44/111/14 38/106/14 42/107/14 41/112/14
f 44/111/14 43/113/14 38/106/14
f 37/114/14 48/103/14 38/106/14
f 49/115/30 50/116/30 51/117/30 52/118/30
f 53/119/31 54/120/31 50/121/31 49/122/31
f 55/123/32 56/124/32 54/125/32 53/126/32
f 57/127/30 58/128/30 59/129/30 60/130/30
f 61/131/31 62/132/31 58/133/31 57/134/31
f 63/135/32 64/136/32 62/137/32 61/138/32
f 65/139/31 66/140/31 52/141/31 51/142/31
f 67/143/31 68/144/31 56/145/31 55/146/31
f 69/147/31 70/148/31 60/149/31 59/150/31
f 71/151/31 72/152/31 64/153/31 63/154/31
f 73/155/33 74/156/32 75/157/32 76/158/33
f 77/159/34 73/155/33 76/160/33 78/161/34
f 79/162/30 77/159/34 78/163/34 80/164/30
f 81/165/35 79/166/30 80/167/30 82/168/35
f 83/169/36 81/170/35 82/171/35 84/172/36
f 74/156/32 83/169/36 84/173/36 75/174/32
f 73/175/31 77/176/31 79/177/31 83/178/31
f 79/177/31 81/179/31 83/178/31
f 74/180/31 73/175/31 83/178/31
f 85/181/37 86/182/32 87/183/32 88/184/37
f 89/185/38 85/181/37 88/184/37 90/186/38
f 91/187/39 89/185/38 90/186/38 92/188/39
f 93/189/40 91/187/39 92/188/39 94/190/40
f 95/191/41 93/189/40 94/190/40 96/192/41
f 97/193/42 95/191/41 96/192/41 98/194/42
f 86/182/32 97/195/42 98/196/42 87/183/32
f 85/197/31 89/198/31 91/199/31 97/200/31
f 91/199/31 93/201/31 95/202/31 97/200/31
f 86/203/31 85/197/31 97/200/31
f 99/204/33 100/205/32 101/206/32 102/207/33
f 103/208/34 99/204/33 102/209/33 104/210/34
f 105/211/30 103/208/34 104/212/34 106/213/30
f 107/214/35 105/211/30 106/215/30 108/216/35
f 109/217/36 107/214/35 108/218/35 110/219/36
f 100/205/32 109/217/36 110/220/36 101/221/32
f 99/222/31 103/223/31 105/224/31 109/225/31
f 105/224/31 107/226/31 109/225/31
f 100/227/31 99/222/31 109/225/31
f 111/228/37 112/229/32 113/230/32 114/231/37
f 115/232/38 111/233/37 114/234/37 116/235/38
f 117/236/39 115/232/38 116/235/38 118/237/39
f 119/238/40 117/236/39 118/237/39 120/239/40
f 121/240/41 119/238/40 120/239/40 122/241/41
f 123/242/42 121/240/41 122/241/41 124/243/42
f 112/229/32 123/242/42 124/243/42 113/230/32
f 111/244/31 115/245/31 117/246/31 123/247/31
f 117/246/31 119/248/31 121/249/31 123/247/31
f 112/250/31 111/244/31 123/247/31
f 125/251/33 126/252/32 127/253/32 128/254/33
f 129/255/34 125/251/33 128/256/33 130/257/34
f 131/258/30 129/255/34 130/259/34 132/260/30
f 133/261/35 131/258/30 132/262/30 134/263/35
f 135/264/36 133/261/35 134/265/35 136/266/36
f 126/252/32 135/264/36 136/267/36 127/268/32
f 125/269/31 129/270/31 131/271/31 135/272/31
f 131/271/31 133/273/31 135/272/31
f 126/274/31 125/269/31 135/272/31
f 137/275/37 138/276/32 139/277/32 140/278/37
f 141/279/38 137/275/37 140/278/37 142/280/38
f 143/281/39 141/279/38 142/280/38 144/282/39
f 145/283/40 143/281/39 144/282/39 146/284/40
f 147/285/41 145/286/40 146/287/40 148/288/41
f 149/289/42 147/285/41 148/288/41 150/290/42
f 138/276/32 149/289/42 150/290/42 139/277/32
f 137/291/31 141/292/31 143/293/31 149/294/31
f 143/293/31 145/295/31 147/296/31 149/294/31
f 138/297/31 137/291/31 149/294/31
f 151/298/33 152/299/32 153/300/32 154/301/33
f 155/302/34 151/298/33 154/303/33 156/304/34
f 157/305/30 155/302/34 156/306/34 158/307/30
f 159/308/35 157/305/30 158/309/30 160/310/35
f 161/311/36 159/308/35 160/312/35 162/313/36
f 152/299/32 161/311/36 162/314/36 153/315/32
f 151/316/31 155/317/31 157/318/31 161/319/31
f 157/318/31 159/320/31 161/319/31
f 152/321/31 151/316/31 161/319/31
f 163/322/37 164/323/32 165/324/32 166/325/37
f 167/326/38 163/322/37 166/325/37 168/327/38
f 169/328/39 167/326/38 168/327/38 170/329/39
f 171/330/40 169/328/39 170/329/39 172/331/40
f 173/332/41 171/330/40 172/331/40 174/333/41
f 175/334/42 173/332/41 174/333/41 176/335/42
f 164/323/32 175/336/42 176/337/42 165/324/32
f 163/338/31 167/339/31 169/340/31 175/341/31
f 169/340/31 171/342/31 173/343/31 175/341/31
f 164/344/31 163/338/31 175/341/31

# 136 faces
