# 3ds Max Wavefront OBJ Exporter v0.99 - (c)2007 guruware
# File Created: 05.04.2023 00:25:21

mtllib StandingMirror.mtl

#
# object Box001
#

v  2.0735 7.5715 0.4154
v  -2.0735 7.5715 -0.7908
v  2.0735 7.5715 -0.7908
v  -2.0735 7.5715 0.4154
v  2.0735 59.6882 -0.7908
v  -2.0735 59.6882 0.4154
v  2.0735 59.6882 0.4154
v  -2.0735 59.6882 -0.7908
v  -2.4133 42.3159 -0.7335
v  2.4133 24.9437 -0.7335
v  -2.4133 24.9437 -0.7335
v  2.4133 42.3159 -0.7335
v  15.8720 33.4172 0.0331
v  15.8720 34.2677 -0.0044
v  15.8720 33.8425 0.0331
v  15.8720 33.8425 -0.4084
v  15.8720 34.2677 -0.3710
v  15.8720 32.9920 -0.3710
v  15.8720 33.4172 -0.4084
v  15.8720 32.9920 -0.0044
v  2.4133 42.3159 0.4154
v  -2.4133 24.9437 0.4154
v  2.4133 24.9437 0.4154
v  -2.4133 42.3159 0.4154
v  -15.8720 33.4172 -0.4084
v  -15.8720 34.2677 -0.3710
v  -15.8720 33.8425 -0.4084
v  -15.8720 33.8425 0.0331
v  -15.8720 34.2677 -0.0044
v  -15.8720 32.9920 -0.0044
v  -15.8720 33.4172 0.0331
v  -15.8720 32.9920 -0.3710
v  -1.8797 58.4882 -0.7335
v  1.8797 58.4882 -0.7335
v  1.8797 8.7715 -0.7335
v  -1.8797 8.7715 -0.7335
v  10.3675 50.2597 0.4154
v  12.0664 39.1731 -0.7908
v  10.3675 50.2597 -0.7908
v  12.0664 39.1731 0.4154
v  10.3675 17.0000 -0.7908
v  12.0664 28.0866 0.4154
v  10.3675 17.0000 0.4154
v  12.0664 28.0866 -0.7908
v  -10.3675 50.2597 -0.7908
v  -12.0664 39.1731 0.4154
v  -10.3675 50.2597 0.4154
v  -12.0664 39.1731 -0.7908
v  -10.3675 17.0000 0.4154
v  -12.0664 28.0866 -0.7908
v  -10.3675 17.0000 -0.7908
v  -12.0664 28.0866 0.4154
v  10.8761 39.0183 -0.7335
v  11.3443 32.6163 -0.7335
v  10.8761 28.2414 -0.7335
v  11.3443 33.2706 -0.7335
v  11.3443 33.9890 -0.7335
v  11.3443 34.6434 -0.7335
v  12.5443 32.5523 0.4154
v  12.5443 32.5523 0.3130
v  12.5443 32.5523 -0.6884
v  12.5443 32.5523 -0.7908
v  12.5443 34.7074 0.4154
v  12.5443 33.9890 0.4154
v  12.5443 33.2706 0.4154
v  12.5443 34.7074 -0.7908
v  12.5443 34.7074 -0.6884
v  12.5443 34.7074 0.3130
v  -10.8761 28.2414 -0.7335
v  -11.3443 34.6434 -0.7335
v  -10.8761 39.0183 -0.7335
v  -11.3443 33.9890 -0.7335
v  -11.3443 33.2706 -0.7335
v  -11.3443 32.6163 -0.7335
v  -12.5443 34.7074 0.4154
v  -12.5443 34.7074 0.3130
v  -12.5443 34.7074 -0.6884
v  -12.5443 34.7074 -0.7908
v  -12.5443 32.5523 0.4154
v  -12.5443 33.2706 0.4154
v  -12.5443 33.9890 0.4154
v  -12.5443 32.5523 -0.7908
v  -12.5443 32.5523 -0.6884
v  -12.5443 32.5523 0.3130
v  12.5443 33.2706 -0.7908
v  12.5443 33.9890 -0.7908
v  -12.5443 33.9890 -0.7908
v  -12.5443 33.2706 -0.7908
v  14.8720 33.4172 -0.4084
v  14.8720 33.8425 -0.4084
v  14.8720 32.9920 -0.3710
v  14.8720 32.9920 -0.0044
v  14.8720 33.4172 0.0331
v  14.8720 33.8425 0.0331
v  14.8720 34.2677 -0.0044
v  14.8720 34.2677 -0.3710
v  -14.8720 33.8425 -0.4084
v  -14.8720 33.4172 -0.4084
v  -14.8720 34.2677 -0.3710
v  -14.8720 34.2677 -0.0044
v  -14.8720 33.8425 0.0331
v  -14.8720 33.4172 0.0331
v  -14.8720 32.9920 -0.0044
v  -14.8720 32.9920 -0.3710
v  6.2205 8.9468 -0.7908
v  6.2205 8.9468 0.4154
v  -6.2205 8.9468 0.4154
v  -6.2205 8.9468 -0.7908
v  6.2205 58.3128 0.4154
v  6.2205 58.3128 -0.7908
v  -6.2205 58.3128 -0.7908
v  -6.2205 58.3128 0.4154
v  -7.2399 27.1648 -0.7335
v  -7.2399 40.0948 -0.7335
v  7.2399 40.0948 -0.7335
v  7.2399 27.1648 -0.7335
v  7.2399 27.1648 0.4154
v  7.2399 40.0948 0.4154
v  -7.2399 40.0948 0.4154
v  -7.2399 27.1648 0.4154
v  -9.2110 49.8844 -0.7335
v  -5.3779 57.3280 -0.7335
v  5.3779 57.3280 -0.7335
v  9.2110 49.8844 -0.7335
v  9.2110 17.3753 -0.7335
v  5.3779 9.9316 -0.7335
v  -5.3779 9.9316 -0.7335
v  -9.2110 17.3753 -0.7335
v  9.4038 17.3128 -0.7908
v  5.5183 9.7675 -0.7908
v  11.0745 28.2156 -0.7908
v  11.5443 32.6056 -0.7908
v  11.5443 33.2706 -0.7908
v  11.5443 33.9890 -0.7908
v  11.5443 34.6540 -0.7908
v  11.0745 39.0441 -0.7908
v  9.4038 49.9469 -0.7908
v  5.5183 57.4922 -0.7908
v  1.9120 58.6882 -0.7908
v  -1.9120 58.6882 -0.7908
v  -5.5183 57.4922 -0.7908
v  -9.4038 49.9469 -0.7908
v  -11.0745 39.0441 -0.7908
v  -11.5443 34.6540 -0.7908
v  -11.5443 33.9890 -0.7908
v  -11.5443 33.2706 -0.7908
v  -11.5443 32.6056 -0.7908
v  -11.0745 28.2155 -0.7908
v  -9.4038 17.3128 -0.7908
v  -5.5183 9.7675 -0.7908
v  -1.9120 8.5715 -0.7908
v  1.9120 8.5715 -0.7908
v  14.6720 4.1442 -0.8355
v  16.0720 4.1442 0.4602
v  14.6720 4.1442 0.4602
v  16.0720 4.1442 -0.8355
v  -14.6720 4.1442 0.4602
v  -16.0720 4.1442 -0.8355
v  -14.6720 4.1442 -0.8355
v  -16.0720 4.1442 0.4602
v  14.8720 25.3442 -0.0044
v  14.8720 25.3442 -0.3710
v  15.8720 25.3442 -0.0044
v  15.8720 25.3442 -0.3710
v  -14.8720 25.3442 -0.3710
v  -14.8720 25.3442 -0.0044
v  -15.8720 25.3442 -0.3710
v  -15.8720 25.3442 -0.0044
v  14.6720 25.1442 0.0529
v  14.6720 25.1442 -0.4282
v  16.0720 25.1442 0.0529
v  16.0720 25.1442 -0.4282
v  -14.6720 25.1442 -0.4282
v  -14.6720 25.1442 0.0529
v  -16.0720 25.1442 -0.4282
v  -16.0720 25.1442 0.0529
v  14.8720 24.9442 -0.0044
v  14.8720 24.9442 -0.3710
v  15.8720 24.9442 -0.0044
v  15.8720 24.9442 -0.3710
v  -14.8720 24.9442 -0.3710
v  -14.8720 24.9442 -0.0044
v  -15.8720 24.9442 -0.3710
v  -15.8720 24.9442 -0.0044
v  14.6720 24.7442 0.0529
v  14.6720 24.7442 -0.4282
v  16.0720 24.7442 0.0529
v  16.0720 24.7442 -0.4282
v  -14.6720 24.7442 -0.4282
v  -14.6720 24.7442 0.0529
v  -16.0720 24.7442 -0.4282
v  -16.0720 24.7442 0.0529
v  14.8720 24.5442 -0.0044
v  14.8720 24.5442 -0.3710
v  15.8720 24.5442 -0.0044
v  15.8720 24.5442 -0.3710
v  -14.8720 24.5442 -0.3710
v  -14.8720 24.5442 -0.0044
v  -15.8720 24.5442 -0.3710
v  -15.8720 24.5442 -0.0044
v  14.8720 19.5442 -0.0044
v  14.8720 19.5442 -0.3710
v  15.8720 19.5442 -0.0044
v  15.8720 19.5442 -0.3710
v  -14.8720 19.5442 -0.3710
v  -14.8720 19.5442 -0.0044
v  -15.8720 19.5442 -0.3710
v  -15.8720 19.5442 -0.0044
v  14.6720 19.3442 0.0529
v  14.6720 19.3442 -0.4282
v  16.0720 19.3442 0.0529
v  16.0720 19.3442 -0.4282
v  -14.6720 19.3442 -0.4282
v  -14.6720 19.3442 0.0529
v  -16.0720 19.3442 -0.4282
v  -16.0720 19.3442 0.0529
v  14.8720 19.1442 -0.0044
v  14.8720 19.1442 -0.3710
v  15.8720 19.1442 -0.0044
v  15.8720 19.1442 -0.3710
v  -14.8720 19.1442 -0.3710
v  -14.8720 19.1442 -0.0044
v  -15.8720 19.1442 -0.3710
v  -15.8720 19.1442 -0.0044
v  14.6720 18.9442 0.0529
v  14.6720 18.9442 -0.4282
v  16.0720 18.9442 0.0529
v  16.0720 18.9442 -0.4282
v  -14.6720 18.9442 -0.4282
v  -14.6720 18.9442 0.0529
v  -16.0720 18.9442 -0.4282
v  -16.0720 18.9442 0.0529
v  14.8720 18.7442 -0.0044
v  14.8720 18.7442 -0.3710
v  15.8720 18.7442 -0.0044
v  15.8720 18.7442 -0.3710
v  -14.8720 18.7442 -0.3710
v  -14.8720 18.7442 -0.0044
v  -15.8720 18.7442 -0.3710
v  -15.8720 18.7442 -0.0044
v  14.8720 13.7442 -0.0044
v  14.8720 13.7442 -0.3710
v  15.8720 13.7442 -0.0044
v  15.8720 13.7442 -0.3710
v  -14.8720 13.7442 -0.3710
v  -14.8720 13.7442 -0.0044
v  -15.8720 13.7442 -0.3710
v  -15.8720 13.7442 -0.0044
v  14.6720 13.5442 0.0529
v  14.6720 13.5442 -0.4282
v  16.0720 13.5442 0.0529
v  16.0720 13.5442 -0.4282
v  -14.6720 13.5442 -0.4282
v  -14.6720 13.5442 0.0529
v  -16.0720 13.5442 -0.4282
v  -16.0720 13.5442 0.0529
v  14.8720 13.3442 -0.0044
v  14.8720 13.3442 -0.3710
v  15.8720 13.3442 -0.0044
v  15.8720 13.3442 -0.3710
v  -14.8720 13.3442 -0.3710
v  -14.8720 13.3442 -0.0044
v  -15.8720 13.3442 -0.3710
v  -15.8720 13.3442 -0.0044
v  14.8720 5.3442 -0.0044
v  14.8720 5.3442 -0.3710
v  15.8720 5.3442 -0.0044
v  15.8720 5.3442 -0.3710
v  -14.8720 5.3442 -0.3710
v  -14.8720 5.3442 -0.0044
v  -15.8720 5.3442 -0.3710
v  -15.8720 5.3442 -0.0044
v  14.6720 5.1442 0.0529
v  14.6720 5.1442 -0.4282
v  16.0720 5.1442 0.0529
v  16.0720 5.1442 -0.4282
v  -14.6720 5.1442 -0.4282
v  -14.6720 5.1442 0.0529
v  -16.0720 5.1442 -0.4282
v  -16.0720 5.1442 0.0529
v  14.6720 1.4382 6.3788
v  16.0720 0.4382 6.3788
v  16.0720 1.4382 6.3788
v  14.6720 0.4382 6.3788
v  16.0720 1.4382 -6.7542
v  14.6720 0.4382 -6.7542
v  14.6720 1.4382 -6.7542
v  16.0720 0.4382 -6.7542
v  -14.6720 1.4382 -6.7542
v  -16.0720 0.4382 -6.7542
v  -16.0720 1.4382 -6.7542
v  -14.6720 0.4382 -6.7542
v  -16.0720 1.4382 6.3788
v  -14.6720 0.4382 6.3788
v  -14.6720 1.4382 6.3788
v  -16.0720 0.4382 6.3788
v  16.0720 3.6690 2.7740
v  14.6720 3.6690 2.7740
v  16.0720 2.6690 2.7740
v  14.6720 2.6690 2.7740
v  14.6720 3.6690 -3.1494
v  16.0720 3.6690 -3.1494
v  14.6720 2.6690 -3.1494
v  16.0720 2.6690 -3.1494
v  -16.0720 3.6690 -3.1494
v  -14.6720 3.6690 -3.1494
v  -16.0720 2.6690 -3.1494
v  -14.6720 2.6690 -3.1494
v  -14.6720 3.6690 2.7740
v  -16.0720 3.6690 2.7740
v  -14.6720 2.6690 2.7740
v  -16.0720 2.6690 2.7740
v  16.0720 2.7149 4.0024
v  14.6720 2.7149 4.0024
v  16.0720 1.7149 4.0024
v  14.6720 1.7149 4.0024
v  14.6720 2.7149 -4.3778
v  16.0720 2.7149 -4.3778
v  14.6720 1.7149 -4.3778
v  16.0720 1.7149 -4.3778
v  -16.0720 2.7149 -4.3778
v  -14.6720 2.7149 -4.3778
v  -16.0720 1.7149 -4.3778
v  -14.6720 1.7149 -4.3778
v  -14.6720 2.7149 4.0024
v  -16.0720 2.7149 4.0024
v  -14.6720 1.7149 4.0024
v  -16.0720 1.7149 4.0024
v  16.0720 1.4382 5.4188
v  14.6720 1.4382 5.4188
v  16.0720 0.4382 5.4188
v  14.6720 0.4382 5.4188
v  14.6720 1.4382 -5.7942
v  16.0720 1.4382 -5.7942
v  16.0720 0.4382 -5.7942
v  14.6720 0.4382 -5.7942
v  -16.0720 1.4382 -5.7942
v  -14.6720 1.4382 -5.7942
v  -16.0720 0.4382 -5.7942
v  -14.6720 0.4382 -5.7942
v  -14.6720 1.4382 5.4188
v  -16.0720 1.4382 5.4188
v  -16.0720 0.4382 5.4188
v  -14.6720 0.4382 5.4188
v  14.6720 2.1409 4.2338
v  14.6720 1.8717 4.2338
v  14.6720 1.2814 5.1874
v  14.6720 1.0121 5.1874
v  14.6720 1.8717 -4.6092
v  14.6720 2.1410 -4.6092
v  14.6720 1.0121 -5.5628
v  14.6720 1.2814 -5.5628
v  -14.6720 2.1410 -4.6092
v  -14.6720 1.8717 -4.6092
v  -14.6720 1.2814 -5.5628
v  -14.6720 1.0121 -5.5628
v  -14.6720 1.8717 4.2338
v  -14.6720 2.1409 4.2338
v  -14.6720 1.0121 5.1874
v  -14.6720 1.2814 5.1874
# 360 vertices

vn 0.1179 -0.7303 0.6729
vn -0.1179 -0.7303 -0.6729
vn 0.1179 -0.7303 -0.6729
vn -0.1179 -0.7303 0.6729
vn 0.1179 0.7303 -0.6729
vn -0.1179 0.7303 0.6729
vn 0.1179 0.7303 0.6729
vn -0.1179 0.7303 -0.6729
vn 0.0000 0.0000 -1.0000
vn -0.0000 0.0000 -1.0000
vn 0.6974 -0.0315 0.7160
vn 0.5821 0.5997 0.5491
vn 0.6973 0.0315 0.7160
vn 0.6974 0.0315 -0.7160
vn 0.5821 0.5997 -0.5491
vn 0.7171 -0.0306 -0.6963
vn 0.6973 -0.0315 -0.7160
vn 0.7171 -0.0306 0.6963
vn 0.0000 -0.0000 1.0000
vn 0.0000 0.0000 1.0000
vn -0.0000 0.0000 1.0000
vn -0.6974 -0.0315 -0.7160
vn -0.5821 0.5997 -0.5491
vn -0.6973 0.0315 -0.7160
vn -0.6974 0.0315 0.7160
vn -0.5821 0.5997 0.5491
vn -0.7171 -0.0306 0.6963
vn -0.6973 -0.0315 0.7160
vn -0.7171 -0.0306 -0.6963
vn 0.0241 -0.1491 -0.9885
vn -0.0241 -0.1491 -0.9885
vn -0.0241 0.1491 -0.9885
vn 0.0241 0.1491 -0.9885
vn 0.7039 0.2284 0.6726
vn 0.7062 0.0918 -0.7020
vn 0.7039 0.2284 -0.6726
vn 0.7062 0.0918 0.7020
vn 0.7039 -0.2284 -0.6726
vn 0.7062 -0.0918 0.7020
vn 0.7039 -0.2284 0.6726
vn 0.7062 -0.0918 -0.7020
vn -0.7039 0.2284 -0.6726
vn -0.7062 0.0918 0.7020
vn -0.7039 0.2284 0.6726
vn -0.7062 0.0918 -0.7020
vn -0.7039 -0.2284 0.6726
vn -0.7062 -0.0918 -0.7020
vn -0.7039 -0.2284 -0.6726
vn -0.7062 -0.0918 0.7020
vn -0.1398 -0.0182 -0.9900
vn -0.1432 0.0076 -0.9897
vn -0.1398 0.0182 -0.9900
vn -0.1390 0.0000 -0.9903
vn -0.1432 -0.0076 -0.9897
vn 0.7177 -0.0383 0.6953
vn 0.9053 -0.3463 0.2461
vn 0.9044 -0.3483 -0.2465
vn 0.7177 -0.0383 -0.6953
vn 0.7177 0.0383 0.6953
vn 0.1032 0.0344 0.9941
vn 0.1055 -0.0359 0.9938
vn 0.7177 0.0383 -0.6953
vn 0.9053 0.3463 -0.2461
vn 0.9044 0.3483 0.2465
vn 0.1398 0.0182 -0.9900
vn 0.1432 -0.0076 -0.9897
vn 0.1398 -0.0182 -0.9900
vn 0.1390 0.0000 -0.9903
vn 0.1432 0.0076 -0.9897
vn -0.7177 0.0383 0.6953
vn -0.9053 0.3463 0.2461
vn -0.9044 0.3483 -0.2465
vn -0.7177 0.0383 -0.6953
vn -0.7177 -0.0383 0.6953
vn -0.1032 -0.0344 0.9941
vn -0.1055 0.0359 0.9938
vn -0.7177 -0.0383 -0.6953
vn -0.9053 -0.3463 -0.2461
vn -0.9044 -0.3483 0.2465
vn 0.1032 -0.0344 -0.9941
vn 0.1055 0.0359 -0.9938
vn -0.1032 0.0344 -0.9941
vn -0.1055 -0.0359 -0.9938
vn 0.0827 -0.0430 -0.9956
vn 0.0797 0.0455 -0.9958
vn -0.1814 -0.3718 -0.9104
vn -0.1862 -0.3686 0.9108
vn 0.0797 -0.0455 0.9958
vn 0.0827 0.0430 0.9956
vn 0.1242 0.7292 0.6729
vn 0.1192 0.7276 -0.6755
vn -0.0827 0.0430 -0.9956
vn -0.0797 -0.0455 -0.9958
vn -0.1242 0.7292 -0.6729
vn -0.1192 0.7276 0.6755
vn -0.0797 0.0455 0.9958
vn -0.0827 -0.0430 0.9956
vn 0.1814 -0.3718 0.9104
vn 0.1862 -0.3686 -0.9108
vn 0.5043 -0.5894 -0.6311
vn 0.5043 -0.5894 0.6311
vn -0.5043 -0.5894 0.6311
vn -0.5043 -0.5894 -0.6311
vn 0.5043 0.5894 0.6311
vn 0.5043 0.5894 -0.6311
vn -0.5043 0.5894 -0.6311
vn -0.5043 0.5894 0.6311
vn -0.0000 -0.0000 -1.0000
vn 0.1437 -0.0466 -0.9885
vn 0.1042 -0.1218 -0.9871
vn -0.1042 -0.1218 -0.9871
vn -0.1437 -0.0466 -0.9885
vn -0.1437 0.0466 -0.9885
vn -0.1042 0.1218 -0.9871
vn 0.1042 0.1218 -0.9871
vn 0.1437 0.0466 -0.9885
vn -0.1173 0.0381 -0.9924
vn -0.0635 0.0742 -0.9952
vn -0.1359 0.0177 -0.9906
vn -0.1340 0.0071 -0.9910
vn -0.1340 -0.0071 -0.9910
vn -0.1359 -0.0177 -0.9906
vn -0.1174 -0.0381 -0.9924
vn -0.0635 -0.0742 -0.9952
vn -0.0197 -0.1220 -0.9923
vn 0.0197 -0.1220 -0.9923
vn 0.0635 -0.0742 -0.9952
vn 0.1173 -0.0381 -0.9924
vn 0.1359 -0.0177 -0.9906
vn 0.1340 -0.0071 -0.9910
vn 0.1340 0.0071 -0.9910
vn 0.1359 0.0177 -0.9906
vn 0.1173 0.0381 -0.9924
vn 0.0635 0.0742 -0.9952
vn 0.0197 0.1220 -0.9923
vn -0.0197 0.1220 -0.9923
vn -0.7759 -0.6056 0.1766
vn 0.7759 -0.6056 -0.1766
vn -0.7759 -0.6056 -0.1766
vn 0.7759 -0.6056 0.1766
vn -0.5522 0.3708 0.7467
vn -0.5522 0.3708 -0.7467
vn 0.5522 0.3708 0.7467
vn 0.5522 0.3708 -0.7467
vn -0.7815 -0.0000 0.6239
vn -0.7815 0.0000 -0.6239
vn 0.7815 0.0000 0.6239
vn 0.7815 -0.0000 -0.6239
vn 0.7815 0.0000 -0.6239
vn -0.4869 -0.0000 0.8735
vn -0.4869 -0.0000 -0.8735
vn 0.4869 -0.0000 0.8735
vn 0.4869 0.0000 -0.8735
vn -0.4869 0.0000 -0.8735
vn -0.7815 -0.0000 -0.6239
vn 0.7815 -0.0000 0.6239
vn -0.5522 -0.3708 0.7467
vn -0.5522 -0.3708 -0.7467
vn 0.5522 -0.3708 0.7467
vn 0.5522 -0.3708 -0.7467
vn 0.4869 -0.0000 -0.8735
vn -0.7815 0.0000 0.6239
vn -0.7706 0.5484 0.3246
vn -0.7706 0.5484 -0.3246
vn 0.7707 0.5484 0.3246
vn 0.7706 0.5484 -0.3246
vn 0.7706 0.5484 0.3246
vn -0.5774 0.5773 0.5774
vn 0.5774 -0.5774 0.5773
vn 0.5774 0.5773 0.5774
vn -0.5773 -0.5774 0.5773
vn 0.5774 0.5774 -0.5773
vn -0.5774 -0.5774 -0.5774
vn -0.5774 0.5774 -0.5774
vn 0.5774 -0.5773 -0.5774
vn -0.5774 -0.5773 -0.5774
vn -0.5773 0.5774 -0.5773
vn -0.5774 0.5774 0.5774
vn 0.5774 -0.5774 0.5774
vn 0.5774 0.5774 0.5774
vn -0.5774 -0.5774 0.5774
vn 0.6892 0.6067 0.3962
vn -0.6892 0.6066 0.3962
vn 0.7177 -0.5692 -0.4012
vn -0.7177 -0.5692 -0.4012
vn -0.6892 0.6067 -0.3962
vn 0.6892 0.6067 -0.3962
vn -0.7177 -0.5692 0.4012
vn 0.7177 -0.5692 0.4012
vn -0.6892 0.6067 0.3962
vn 0.6990 0.5484 0.4591
vn -0.6990 0.5484 0.4591
vn 0.7154 -0.5357 -0.4485
vn -0.7154 -0.5357 -0.4485
vn -0.6990 0.5484 -0.4591
vn 0.6990 0.5484 -0.4591
vn -0.7154 -0.5357 0.4485
vn 0.7154 -0.5357 0.4485
vn 0.7974 0.5633 0.2164
vn -0.7974 0.5633 0.2164
vn 0.6346 -0.7214 -0.2772
vn -0.6346 -0.7214 -0.2772
vn -0.7974 0.5633 -0.2164
vn 0.7974 0.5633 -0.2164
vn 0.6346 -0.7214 0.2772
vn -0.6346 -0.7214 0.2772
vn -0.9736 0.2086 -0.0928
vn -0.8110 -0.2378 -0.5345
vn -0.8110 0.2378 0.5345
vn -0.9736 -0.2086 0.0928
vn -0.8110 -0.2378 0.5345
vn -0.9736 0.2086 0.0928
vn -0.9736 -0.2086 -0.0928
vn -0.8110 0.2378 -0.5345
vn 0.9736 0.2086 0.0928
vn 0.8110 -0.2378 0.5345
vn 0.8110 0.2378 -0.5345
vn 0.9736 -0.2086 -0.0928
vn 0.8110 -0.2378 -0.5345
vn 0.9736 0.2086 -0.0928
vn 0.9736 -0.2086 0.0928
vn 0.8110 0.2378 0.5345
# 222 vertex normals

vt 0.0974 0.3540 0.0000
vt 0.1134 0.2938 0.0000
vt 0.1134 0.3540 0.0000
vt 0.0974 0.2938 0.0000
vt 0.4491 0.1001 0.0000
vt 0.4331 0.1603 0.0000
vt 0.4331 0.1001 0.0000
vt 0.4491 0.1603 0.0000
vt 0.6455 0.3455 0.0000
vt 0.7453 0.3160 0.0000
vt 0.7453 0.3455 0.0000
vt 0.6455 0.3160 0.0000
vt 0.4103 0.0682 0.0000
vt 0.4217 0.0676 0.0000
vt 0.4160 0.0682 0.0000
vt 0.4160 0.0618 0.0000
vt 0.4217 0.0623 0.0000
vt 0.4047 0.0623 0.0000
vt 0.4103 0.0618 0.0000
vt 0.4047 0.0676 0.0000
vt 0.3901 0.7041 0.0000
vt 0.6082 0.6435 0.0000
vt 0.6082 0.7041 0.0000
vt 0.3901 0.6435 0.0000
vt 0.1679 0.0618 0.0000
vt 0.1566 0.0623 0.0000
vt 0.1623 0.0618 0.0000
vt 0.1623 0.0682 0.0000
vt 0.1566 0.0676 0.0000
vt 0.1736 0.0676 0.0000
vt 0.1679 0.0682 0.0000
vt 0.1736 0.0623 0.0000
vt 0.5526 0.3423 0.0000
vt 0.5526 0.3193 0.0000
vt 0.8382 0.3193 0.0000
vt 0.8382 0.3423 0.0000
vt 0.8044 0.6028 0.0000
vt 0.7884 0.7637 0.0000
vt 0.7884 0.6028 0.0000
vt 0.8044 0.7637 0.0000
vt 0.7719 0.7221 0.0000
vt 0.7880 0.5612 0.0000
vt 0.7880 0.7221 0.0000
vt 0.7719 0.5612 0.0000
vt 0.1720 0.6999 0.0000
vt 0.1720 0.6478 0.0000
vt 0.8264 0.6478 0.0000
vt 0.8264 0.6999 0.0000
vt 0.8048 0.7221 0.0000
vt 0.8209 0.5612 0.0000
vt 0.8209 0.7221 0.0000
vt 0.8048 0.5612 0.0000
vt 0.7715 0.6028 0.0000
vt 0.7555 0.7637 0.0000
vt 0.7555 0.6028 0.0000
vt 0.7715 0.7637 0.0000
vt 0.1429 0.5315 0.0000
vt 0.1366 0.4386 0.0000
vt 0.1429 0.3751 0.0000
vt 0.1366 0.4481 0.0000
vt 0.1366 0.4585 0.0000
vt 0.1366 0.4680 0.0000
vt 0.7880 0.4964 0.0000
vt 0.7866 0.4964 0.0000
vt 0.7733 0.4964 0.0000
vt 0.7719 0.4964 0.0000
vt 0.5688 0.8253 0.0000
vt 0.4857 0.8313 0.0000
vt 0.4296 0.8253 0.0000
vt 0.4947 0.8313 0.0000
vt 0.5062 0.5752 0.0000
vt 0.4998 0.5000 0.0000
vt 0.4998 0.4896 0.0000
vt 0.5127 0.8313 0.0000
vt 0.5037 0.8313 0.0000
vt 0.7884 0.8285 0.0000
vt 0.7897 0.8285 0.0000
vt 0.8031 0.8285 0.0000
vt 0.8044 0.8285 0.0000
vt 0.4325 0.3751 0.0000
vt 0.4388 0.4680 0.0000
vt 0.4325 0.5315 0.0000
vt 0.4388 0.4585 0.0000
vt 0.4388 0.4481 0.0000
vt 0.4388 0.4386 0.0000
vt 0.8209 0.4964 0.0000
vt 0.8195 0.4964 0.0000
vt 0.8062 0.4964 0.0000
vt 0.8048 0.4964 0.0000
vt 0.4296 0.5223 0.0000
vt 0.5127 0.5163 0.0000
vt 0.5688 0.5223 0.0000
vt 0.8275 0.4144 0.0000
vt 0.8339 0.5000 0.0000
vt 0.8339 0.5104 0.0000
vt 0.4947 0.5163 0.0000
vt 0.5037 0.5163 0.0000
vt 0.4857 0.5163 0.0000
vt 0.7555 0.8285 0.0000
vt 0.7568 0.8285 0.0000
vt 0.7702 0.8285 0.0000
vt 0.7715 0.8285 0.0000
vt 0.7719 0.4860 0.0000
vt 0.7884 0.8389 0.0000
vt 0.8044 0.8389 0.0000
vt 0.7880 0.4860 0.0000
vt 0.7715 0.8389 0.0000
vt 0.8209 0.4860 0.0000
vt 0.8048 0.4860 0.0000
vt 0.7555 0.8389 0.0000
vt 0.1206 0.4585 0.0000
vt 0.0896 0.4502 0.0000
vt 0.1206 0.4481 0.0000
vt 0.0896 0.4564 0.0000
vt 0.0896 0.4440 0.0000
vt 0.1206 0.4376 0.0000
vt 0.1408 0.1770 0.0000
vt 0.1499 0.1433 0.0000
vt 0.1541 0.1770 0.0000
vt 0.1450 0.1433 0.0000
vt 0.4998 0.5104 0.0000
vt 0.4688 0.4979 0.0000
vt 0.4688 0.5040 0.0000
vt 0.4688 0.4917 0.0000
vt 0.4688 0.4855 0.0000
vt 0.4998 0.4792 0.0000
vt 0.1793 0.6120 0.0000
vt 0.2103 0.6219 0.0000
vt 0.1793 0.6265 0.0000
vt 0.2103 0.6166 0.0000
vt 0.1206 0.4689 0.0000
vt 0.0896 0.4625 0.0000
vt 0.4547 0.4481 0.0000
vt 0.4857 0.4564 0.0000
vt 0.4547 0.4585 0.0000
vt 0.4857 0.4502 0.0000
vt 0.4857 0.4625 0.0000
vt 0.4547 0.4689 0.0000
vt 0.2236 0.5357 0.0000
vt 0.1926 0.5258 0.0000
vt 0.2236 0.5212 0.0000
vt 0.1926 0.5311 0.0000
vt 0.8339 0.4792 0.0000
vt 0.8649 0.4917 0.0000
vt 0.8339 0.4896 0.0000
vt 0.8649 0.4855 0.0000
vt 0.8649 0.4979 0.0000
vt 0.8649 0.5040 0.0000
vt 0.1724 0.1125 0.0000
vt 0.1815 0.0787 0.0000
vt 0.1857 0.1125 0.0000
vt 0.1766 0.0787 0.0000
vt 0.4547 0.4376 0.0000
vt 0.4857 0.4440 0.0000
vt 0.7719 0.8389 0.0000
vt 0.7880 0.8389 0.0000
vt 0.0974 0.4141 0.0000
vt 0.1134 0.4141 0.0000
vt 0.7715 0.4860 0.0000
vt 0.7555 0.4860 0.0000
vt 0.1134 0.2336 0.0000
vt 0.0974 0.2336 0.0000
vt 0.8044 0.4860 0.0000
vt 0.7884 0.4860 0.0000
vt 0.4491 0.0400 0.0000
vt 0.4331 0.0400 0.0000
vt 0.8048 0.8389 0.0000
vt 0.8209 0.8389 0.0000
vt 0.4331 0.2205 0.0000
vt 0.4491 0.2205 0.0000
vt 0.6645 0.3973 0.0000
vt 0.7326 0.3751 0.0000
vt 0.7264 0.3973 0.0000
vt 0.6583 0.3751 0.0000
vt 0.7264 0.2642 0.0000
vt 0.6583 0.2865 0.0000
vt 0.6645 0.2642 0.0000
vt 0.7326 0.2865 0.0000
vt 0.5804 0.7647 0.0000
vt 0.4180 0.7647 0.0000
vt 0.4180 0.5829 0.0000
vt 0.5804 0.5829 0.0000
vt 0.6021 0.3871 0.0000
vt 0.5593 0.3637 0.0000
vt 0.5593 0.2979 0.0000
vt 0.6021 0.2744 0.0000
vt 0.7888 0.2744 0.0000
vt 0.8315 0.2979 0.0000
vt 0.8315 0.3637 0.0000
vt 0.7888 0.3871 0.0000
vt 0.2904 0.8040 0.0000
vt 0.1893 0.7519 0.0000
vt 0.1893 0.5957 0.0000
vt 0.2904 0.5437 0.0000
vt 0.7080 0.5437 0.0000
vt 0.8091 0.5957 0.0000
vt 0.8091 0.7519 0.0000
vt 0.7080 0.8040 0.0000
vt 0.2049 0.0952 0.0000
vt 0.1625 0.2165 0.0000
vt 0.1496 0.2120 0.0000
vt 0.2142 0.1071 0.0000
vt 0.1402 0.3747 0.0000
vt 0.1270 0.3728 0.0000
vt 0.1340 0.4384 0.0000
vt 0.1340 0.4481 0.0000
vt 0.1340 0.4585 0.0000
vt 0.1340 0.4681 0.0000
vt 0.1402 0.5318 0.0000
vt 0.1270 0.5337 0.0000
vt 0.1625 0.6900 0.0000
vt 0.1496 0.6945 0.0000
vt 0.2142 0.7995 0.0000
vt 0.2049 0.8114 0.0000
vt 0.2622 0.8168 0.0000
vt 0.2601 0.8313 0.0000
vt 0.3131 0.8168 0.0000
vt 0.3153 0.8313 0.0000
vt 0.3612 0.7995 0.0000
vt 0.3705 0.8114 0.0000
vt 0.4129 0.6900 0.0000
vt 0.4257 0.6945 0.0000
vt 0.4352 0.5318 0.0000
vt 0.4484 0.5337 0.0000
vt 0.4414 0.4681 0.0000
vt 0.4414 0.4585 0.0000
vt 0.4414 0.4481 0.0000
vt 0.4414 0.4384 0.0000
vt 0.4352 0.3747 0.0000
vt 0.4484 0.3728 0.0000
vt 0.4129 0.2165 0.0000
vt 0.4257 0.2120 0.0000
vt 0.3612 0.1071 0.0000
vt 0.3705 0.0952 0.0000
vt 0.3131 0.0897 0.0000
vt 0.3153 0.0752 0.0000
vt 0.2622 0.0897 0.0000
vt 0.2601 0.0752 0.0000
vt 0.1650 0.2174 0.0000
vt 0.2161 0.1094 0.0000
vt 0.1650 0.6891 0.0000
vt 0.2161 0.7971 0.0000
vt 0.2627 0.8139 0.0000
vt 0.3127 0.8139 0.0000
vt 0.3593 0.7971 0.0000
vt 0.4103 0.6891 0.0000
vt 0.4103 0.2174 0.0000
vt 0.3593 0.1094 0.0000
vt 0.3127 0.0926 0.0000
vt 0.2627 0.0926 0.0000
vt 0.0763 0.4502 0.0000
vt 0.0763 0.4564 0.0000
vt 0.0763 0.4440 0.0000
vt 0.2527 0.0400 0.0000
vt 0.2354 0.0603 0.0000
vt 0.2354 0.0400 0.0000
vt 0.2527 0.0603 0.0000
vt 0.4555 0.4979 0.0000
vt 0.4555 0.5040 0.0000
vt 0.4555 0.4917 0.0000
vt 0.4555 0.4855 0.0000
vt 0.2236 0.6219 0.0000
vt 0.2236 0.6166 0.0000
vt 0.0763 0.4625 0.0000
vt 0.4990 0.4564 0.0000
vt 0.4990 0.4502 0.0000
vt 0.4990 0.4625 0.0000
vt 0.1793 0.5258 0.0000
vt 0.1793 0.5311 0.0000
vt 0.8782 0.4917 0.0000
vt 0.8782 0.4855 0.0000
vt 0.8782 0.4979 0.0000
vt 0.8782 0.5040 0.0000
vt 0.3201 0.5154 0.0000
vt 0.3028 0.5357 0.0000
vt 0.3028 0.5154 0.0000
vt 0.3201 0.5357 0.0000
vt 0.4990 0.4440 0.0000
vt 0.4229 0.0701 0.0000
vt 0.4180 0.1811 0.0000
vt 0.4180 0.0701 0.0000
vt 0.4229 0.1811 0.0000
vt 0.4555 0.6150 0.0000
vt 0.4688 0.6150 0.0000
vt 0.3028 0.0623 0.0000
vt 0.3028 0.0676 0.0000
vt 0.0896 0.3331 0.0000
vt 0.0763 0.3331 0.0000
vt 0.4615 0.1596 0.0000
vt 0.4664 0.0487 0.0000
vt 0.4664 0.1596 0.0000
vt 0.4615 0.0487 0.0000
vt 0.6862 0.1845 0.0000
vt 0.5767 0.2069 0.0000
vt 0.6820 0.1719 0.0000
vt 0.5809 0.2196 0.0000
vt 0.2754 0.0676 0.0000
vt 0.2754 0.0623 0.0000
vt 0.8649 0.6150 0.0000
vt 0.8782 0.6150 0.0000
vt 0.4173 0.1840 0.0000
vt 0.4237 0.1840 0.0000
vt 0.4528 0.6179 0.0000
vt 0.4715 0.6179 0.0000
vt 0.3002 0.0615 0.0000
vt 0.3002 0.0685 0.0000
vt 0.0923 0.3302 0.0000
vt 0.0737 0.3302 0.0000
vt 0.4671 0.0458 0.0000
vt 0.4607 0.0458 0.0000
vt 0.5731 0.2053 0.0000
vt 0.5790 0.2230 0.0000
vt 0.2781 0.0685 0.0000
vt 0.2781 0.0615 0.0000
vt 0.8622 0.6179 0.0000
vt 0.8809 0.6179 0.0000
vt 0.4180 0.1869 0.0000
vt 0.4229 0.1869 0.0000
vt 0.4555 0.6208 0.0000
vt 0.4688 0.6208 0.0000
vt 0.2975 0.0623 0.0000
vt 0.2975 0.0676 0.0000
vt 0.0896 0.3273 0.0000
vt 0.0763 0.3273 0.0000
vt 0.4664 0.0429 0.0000
vt 0.4615 0.0429 0.0000
vt 0.5712 0.2088 0.0000
vt 0.5754 0.2214 0.0000
vt 0.2808 0.0676 0.0000
vt 0.2808 0.0623 0.0000
vt 0.8649 0.6208 0.0000
vt 0.8782 0.6208 0.0000
vt 0.4173 0.1898 0.0000
vt 0.4237 0.1898 0.0000
vt 0.4528 0.6237 0.0000
vt 0.4715 0.6237 0.0000
vt 0.2948 0.0615 0.0000
vt 0.2948 0.0685 0.0000
vt 0.0923 0.3244 0.0000
vt 0.0737 0.3244 0.0000
vt 0.4671 0.0400 0.0000
vt 0.4607 0.0400 0.0000
vt 0.5676 0.2072 0.0000
vt 0.5735 0.2248 0.0000
vt 0.2834 0.0685 0.0000
vt 0.2834 0.0615 0.0000
vt 0.8622 0.6237 0.0000
vt 0.8809 0.6237 0.0000
vt 0.2539 0.0701 0.0000
vt 0.2482 0.0742 0.0000
vt 0.2474 0.0701 0.0000
vt 0.2531 0.0742 0.0000
vt 0.4555 0.6266 0.0000
vt 0.4688 0.6266 0.0000
vt 0.1446 0.1890 0.0000
vt 0.1408 0.1828 0.0000
vt 0.1446 0.1820 0.0000
vt 0.1408 0.1881 0.0000
vt 0.0896 0.3215 0.0000
vt 0.0763 0.3215 0.0000
vt 0.2237 0.0828 0.0000
vt 0.2294 0.0787 0.0000
vt 0.2302 0.0828 0.0000
vt 0.2245 0.0787 0.0000
vt 0.5657 0.2106 0.0000
vt 0.5699 0.2232 0.0000
vt 0.1408 0.1992 0.0000
vt 0.1446 0.2054 0.0000
vt 0.1408 0.2062 0.0000
vt 0.1446 0.2000 0.0000
vt 0.8649 0.6266 0.0000
vt 0.8782 0.6266 0.0000
vt 0.4585 0.3326 0.0000
vt 0.4536 0.4051 0.0000
vt 0.4536 0.3326 0.0000
vt 0.4585 0.4051 0.0000
vt 0.4555 0.6992 0.0000
vt 0.4688 0.6992 0.0000
vt 0.0981 0.6619 0.0000
vt 0.1030 0.5894 0.0000
vt 0.1030 0.6619 0.0000
vt 0.0981 0.5894 0.0000
vt 0.0896 0.2489 0.0000
vt 0.0763 0.2489 0.0000
vt 0.1228 0.5004 0.0000
vt 0.1179 0.5730 0.0000
vt 0.1179 0.5004 0.0000
vt 0.1228 0.5730 0.0000
vt 0.4968 0.2335 0.0000
vt 0.5010 0.2461 0.0000
vt 0.4071 0.0787 0.0000
vt 0.4022 0.1513 0.0000
vt 0.4022 0.0787 0.0000
vt 0.4071 0.1513 0.0000
vt 0.8649 0.6992 0.0000
vt 0.8782 0.6992 0.0000
vt 0.4528 0.4080 0.0000
vt 0.4592 0.4080 0.0000
vt 0.4528 0.7021 0.0000
vt 0.4715 0.7021 0.0000
vt 0.1038 0.5865 0.0000
vt 0.0974 0.5865 0.0000
vt 0.0923 0.2460 0.0000
vt 0.0737 0.2460 0.0000
vt 0.1171 0.5759 0.0000
vt 0.1235 0.5759 0.0000
vt 0.4932 0.2319 0.0000
vt 0.4991 0.2496 0.0000
vt 0.4015 0.1542 0.0000
vt 0.4079 0.1542 0.0000
vt 0.8622 0.7021 0.0000
vt 0.8809 0.7021 0.0000
vt 0.1724 0.1347 0.0000
vt 0.1762 0.1408 0.0000
vt 0.1724 0.1416 0.0000
vt 0.1762 0.1355 0.0000
vt 0.4555 0.7050 0.0000
vt 0.4688 0.7050 0.0000
vt 0.1762 0.1330 0.0000
vt 0.1724 0.1269 0.0000
vt 0.1762 0.1260 0.0000
vt 0.1724 0.1322 0.0000
vt 0.0896 0.2431 0.0000
vt 0.0763 0.2431 0.0000
vt 0.2157 0.0857 0.0000
vt 0.2119 0.0795 0.0000
vt 0.2157 0.0787 0.0000
vt 0.2119 0.0849 0.0000
vt 0.4913 0.2353 0.0000
vt 0.4955 0.2480 0.0000
vt 0.1724 0.1174 0.0000
vt 0.1762 0.1236 0.0000
vt 0.1724 0.1244 0.0000
vt 0.1762 0.1183 0.0000
vt 0.8649 0.7050 0.0000
vt 0.8782 0.7050 0.0000
vt 0.2017 0.0873 0.0000
vt 0.1961 0.0914 0.0000
vt 0.1969 0.0873 0.0000
vt 0.2025 0.0914 0.0000
vt 0.4528 0.7079 0.0000
vt 0.4715 0.7079 0.0000
vt 0.1999 0.0849 0.0000
vt 0.1961 0.0787 0.0000
vt 0.1999 0.0795 0.0000
vt 0.1961 0.0857 0.0000
vt 0.0923 0.2402 0.0000
vt 0.0737 0.2402 0.0000
vt 0.1446 0.1967 0.0000
vt 0.1408 0.1906 0.0000
vt 0.1446 0.1914 0.0000
vt 0.1408 0.1976 0.0000
vt 0.4877 0.2337 0.0000
vt 0.4936 0.2514 0.0000
vt 0.7920 0.4856 0.0000
vt 0.7976 0.4815 0.0000
vt 0.7969 0.4856 0.0000
vt 0.7912 0.4815 0.0000
vt 0.8622 0.7079 0.0000
vt 0.8809 0.7079 0.0000
vt 0.2236 0.6413 0.0000
vt 0.2198 0.6352 0.0000
vt 0.2236 0.6343 0.0000
vt 0.2198 0.6405 0.0000
vt 0.4555 0.7108 0.0000
vt 0.4688 0.7108 0.0000
vt 0.1728 0.6269 0.0000
vt 0.1765 0.6331 0.0000
vt 0.1728 0.6339 0.0000
vt 0.1765 0.6278 0.0000
vt 0.0896 0.2373 0.0000
vt 0.0763 0.2373 0.0000
vt 0.1728 0.5815 0.0000
vt 0.1765 0.5877 0.0000
vt 0.1728 0.5885 0.0000
vt 0.1765 0.5824 0.0000
vt 0.4858 0.2372 0.0000
vt 0.4900 0.2498 0.0000
vt 0.2236 0.5811 0.0000
vt 0.2198 0.5749 0.0000
vt 0.2236 0.5741 0.0000
vt 0.2198 0.5803 0.0000
vt 0.8649 0.7108 0.0000
vt 0.8782 0.7108 0.0000
vt 0.1728 0.6352 0.0000
vt 0.1728 0.6405 0.0000
vt 0.4555 0.7833 0.0000
vt 0.4688 0.7833 0.0000
vt 0.2236 0.6331 0.0000
vt 0.2236 0.6278 0.0000
vt 0.0896 0.1648 0.0000
vt 0.0763 0.1648 0.0000
vt 0.2236 0.5877 0.0000
vt 0.2236 0.5824 0.0000
vt 0.4170 0.2601 0.0000
vt 0.4212 0.2727 0.0000
vt 0.1728 0.5749 0.0000
vt 0.1728 0.5803 0.0000
vt 0.8649 0.7833 0.0000
vt 0.8782 0.7833 0.0000
vt 0.8152 0.4856 0.0000
vt 0.8209 0.4815 0.0000
vt 0.8201 0.4856 0.0000
vt 0.8145 0.4815 0.0000
vt 0.4528 0.7862 0.0000
vt 0.4715 0.7862 0.0000
vt 0.8037 0.4815 0.0000
vt 0.7980 0.4856 0.0000
vt 0.7988 0.4815 0.0000
vt 0.8044 0.4856 0.0000
vt 0.0923 0.1619 0.0000
vt 0.0737 0.1619 0.0000
vt 0.8133 0.4815 0.0000
vt 0.8077 0.4856 0.0000
vt 0.8084 0.4815 0.0000
vt 0.8141 0.4856 0.0000
vt 0.4134 0.2585 0.0000
vt 0.4193 0.2761 0.0000
vt 0.7823 0.4856 0.0000
vt 0.7880 0.4815 0.0000
vt 0.7872 0.4856 0.0000
vt 0.7816 0.4815 0.0000
vt 0.8622 0.7862 0.0000
vt 0.8809 0.7862 0.0000
vt 0.1630 0.0787 0.0000
vt 0.1574 0.0828 0.0000
vt 0.1566 0.0787 0.0000
vt 0.1622 0.0828 0.0000
vt 0.4555 0.7891 0.0000
vt 0.4688 0.7891 0.0000
vt 0.1250 0.2725 0.0000
vt 0.1307 0.2684 0.0000
vt 0.1314 0.2725 0.0000
vt 0.1258 0.2684 0.0000
vt 0.0896 0.1590 0.0000
vt 0.0763 0.1590 0.0000
vt 0.2357 0.0771 0.0000
vt 0.2319 0.0709 0.0000
vt 0.2357 0.0701 0.0000
vt 0.2319 0.0763 0.0000
vt 0.4115 0.2619 0.0000
vt 0.4157 0.2745 0.0000
vt 0.4016 0.0771 0.0000
vt 0.3978 0.0709 0.0000
vt 0.4016 0.0701 0.0000
vt 0.3978 0.0763 0.0000
vt 0.8649 0.7891 0.0000
vt 0.8782 0.7891 0.0000
vt 0.1574 0.1649 0.0000
vt 0.1622 0.1649 0.0000
vt 0.4555 0.9052 0.0000
vt 0.4688 0.9052 0.0000
vt 0.1307 0.1863 0.0000
vt 0.1258 0.1863 0.0000
vt 0.0896 0.0429 0.0000
vt 0.0763 0.0429 0.0000
vt 0.1566 0.0709 0.0000
vt 0.1566 0.0763 0.0000
vt 0.3014 0.2985 0.0000
vt 0.3056 0.3112 0.0000
vt 0.3225 0.0709 0.0000
vt 0.3225 0.0763 0.0000
vt 0.8649 0.9052 0.0000
vt 0.8782 0.9052 0.0000
vt 0.3090 0.6413 0.0000
vt 0.3146 0.6372 0.0000
vt 0.3139 0.6413 0.0000
vt 0.3082 0.6372 0.0000
vt 0.4528 0.9081 0.0000
vt 0.4715 0.9081 0.0000
vt 0.3139 0.5361 0.0000
vt 0.3082 0.5402 0.0000
vt 0.3090 0.5361 0.0000
vt 0.3146 0.5402 0.0000
vt 0.0923 0.0400 0.0000
vt 0.0737 0.0400 0.0000
vt 0.1454 0.1379 0.0000
vt 0.1417 0.1318 0.0000
vt 0.1454 0.1326 0.0000
vt 0.1417 0.1387 0.0000
vt 0.2978 0.2969 0.0000
vt 0.3036 0.3146 0.0000
vt 0.3090 0.5149 0.0000
vt 0.3146 0.5108 0.0000
vt 0.3139 0.5149 0.0000
vt 0.3082 0.5108 0.0000
vt 0.8622 0.9081 0.0000
vt 0.8809 0.9081 0.0000
vt 0.3201 0.6270 0.0000
vt 0.3028 0.6270 0.0000
vt 0.4568 0.4101 0.0000
vt 0.4701 0.4304 0.0000
vt 0.4568 0.4304 0.0000
vt 0.4701 0.4101 0.0000
vt 0.3028 0.5505 0.0000
vt 0.3201 0.5505 0.0000
vt 0.1239 0.5865 0.0000
vt 0.1053 0.6010 0.0000
vt 0.1053 0.5865 0.0000
vt 0.1239 0.6010 0.0000
vt 0.1323 0.1259 0.0000
vt 0.1323 0.1447 0.0000
vt 0.3885 0.0787 0.0000
vt 0.3699 0.0932 0.0000
vt 0.3699 0.0787 0.0000
vt 0.3885 0.0932 0.0000
vt 0.3201 0.5006 0.0000
vt 0.3028 0.5006 0.0000
vt 0.1053 0.6268 0.0000
vt 0.1239 0.6123 0.0000
vt 0.1239 0.6268 0.0000
vt 0.1053 0.6123 0.0000
vt 0.0963 0.4703 0.0000
vt 0.0776 0.5098 0.0000
vt 0.0776 0.4703 0.0000
vt 0.0963 0.5098 0.0000
vt 0.3509 0.5656 0.0000
vt 0.3509 0.5554 0.0000
vt 0.2046 0.0400 0.0000
vt 0.2046 0.0603 0.0000
vt 0.3509 0.6221 0.0000
vt 0.3509 0.6118 0.0000
vt 0.0776 0.6654 0.0000
vt 0.0963 0.6259 0.0000
vt 0.0963 0.6654 0.0000
vt 0.0776 0.6259 0.0000
vt 0.2720 0.6118 0.0000
vt 0.2720 0.6221 0.0000
vt 0.2835 0.0603 0.0000
vt 0.2835 0.0400 0.0000
vt 0.2720 0.5554 0.0000
vt 0.2720 0.5656 0.0000
vt 0.0974 0.5621 0.0000
vt 0.1160 0.5226 0.0000
vt 0.1160 0.5621 0.0000
vt 0.0974 0.5226 0.0000
vt 0.2720 0.4855 0.0000
vt 0.2720 0.4957 0.0000
vt 0.2720 0.5154 0.0000
vt 0.2720 0.5357 0.0000
vt 0.1278 0.0923 0.0000
vt 0.1184 0.0923 0.0000
vt 0.4636 0.2250 0.0000
vt 0.4449 0.2699 0.0000
vt 0.4449 0.2250 0.0000
vt 0.4636 0.2699 0.0000
vt 0.1184 0.1782 0.0000
vt 0.1278 0.1782 0.0000
vt 0.3509 0.5357 0.0000
vt 0.3509 0.5154 0.0000
vt 0.3509 0.4957 0.0000
vt 0.3509 0.4855 0.0000
vt 0.0776 0.5276 0.0000
vt 0.0963 0.5276 0.0000
vt 0.3672 0.5754 0.0000
vt 0.3672 0.5651 0.0000
vt 0.1883 0.0400 0.0000
vt 0.1883 0.0603 0.0000
vt 0.3672 0.6123 0.0000
vt 0.3672 0.6020 0.0000
vt 0.0963 0.6081 0.0000
vt 0.0776 0.6081 0.0000
vt 0.2556 0.6020 0.0000
vt 0.2556 0.6123 0.0000
vt 0.2998 0.0603 0.0000
vt 0.2998 0.0400 0.0000
vt 0.2556 0.5651 0.0000
vt 0.2556 0.5754 0.0000
vt 0.1160 0.5048 0.0000
vt 0.0974 0.5048 0.0000
vt 0.2556 0.4757 0.0000
vt 0.2556 0.4859 0.0000
vt 0.2556 0.5154 0.0000
vt 0.2556 0.5357 0.0000
vt 0.1188 0.0745 0.0000
vt 0.1094 0.0745 0.0000
vt 0.4449 0.2922 0.0000
vt 0.4636 0.2922 0.0000
vt 0.1094 0.1960 0.0000
vt 0.1188 0.1960 0.0000
vt 0.3672 0.5357 0.0000
vt 0.3672 0.5154 0.0000
vt 0.3672 0.4859 0.0000
vt 0.3672 0.4757 0.0000
vt 0.0776 0.5482 0.0000
vt 0.0963 0.5482 0.0000
vt 0.3861 0.5885 0.0000
vt 0.3861 0.5782 0.0000
vt 0.1694 0.0400 0.0000
vt 0.1694 0.0603 0.0000
vt 0.0963 0.5875 0.0000
vt 0.0776 0.5875 0.0000
vt 0.3187 0.0603 0.0000
vt 0.3187 0.0400 0.0000
vt 0.2368 0.5782 0.0000
vt 0.2368 0.5885 0.0000
vt 0.1160 0.4842 0.0000
vt 0.0974 0.4842 0.0000
vt 0.2368 0.4626 0.0000
vt 0.2368 0.4728 0.0000
vt 0.2368 0.5154 0.0000
vt 0.2368 0.5357 0.0000
vt 0.4449 0.3191 0.0000
vt 0.4636 0.3191 0.0000
vt 0.3861 0.5357 0.0000
vt 0.3861 0.5154 0.0000
vt 0.3861 0.4728 0.0000
vt 0.3861 0.4626 0.0000
vt 0.0776 0.5621 0.0000
vt 0.0963 0.5621 0.0000
vt 0.3989 0.5885 0.0000
vt 0.3989 0.5782 0.0000
vt 0.1566 0.0400 0.0000
vt 0.1566 0.0603 0.0000
vt 0.3861 0.5889 0.0000
vt 0.3989 0.5992 0.0000
vt 0.3861 0.5992 0.0000
vt 0.3989 0.5889 0.0000
vt 0.0963 0.5736 0.0000
vt 0.0776 0.5736 0.0000
vt 0.2368 0.5992 0.0000
vt 0.2240 0.5889 0.0000
vt 0.2368 0.5889 0.0000
vt 0.2240 0.5992 0.0000
vt 0.3315 0.0603 0.0000
vt 0.3315 0.0400 0.0000
vt 0.2240 0.5782 0.0000
vt 0.2240 0.5885 0.0000
vt 0.1160 0.4703 0.0000
vt 0.0974 0.4703 0.0000
vt 0.2240 0.4626 0.0000
vt 0.2240 0.4728 0.0000
vt 0.2240 0.5154 0.0000
vt 0.2240 0.5357 0.0000
vt 0.0974 0.0539 0.0000
vt 0.1068 0.0400 0.0000
vt 0.1068 0.0539 0.0000
vt 0.0974 0.0400 0.0000
vt 0.4449 0.3313 0.0000
vt 0.4636 0.3313 0.0000
vt 0.1068 0.2166 0.0000
vt 0.0974 0.2305 0.0000
vt 0.0974 0.2166 0.0000
vt 0.1068 0.2305 0.0000
vt 0.3989 0.5357 0.0000
vt 0.3989 0.5154 0.0000
vt 0.3989 0.4728 0.0000
vt 0.3989 0.4626 0.0000
vt 0.3703 0.6064 0.0000
vt 0.3703 0.6036 0.0000
vt 0.3830 0.5976 0.0000
vt 0.3830 0.5948 0.0000
vt 0.2526 0.6036 0.0000
vt 0.2526 0.6064 0.0000
vt 0.2399 0.5948 0.0000
vt 0.2399 0.5976 0.0000
vt 0.1134 0.0711 0.0000
vt 0.1109 0.0711 0.0000
vt 0.1053 0.0573 0.0000
vt 0.1028 0.0573 0.0000
vt 0.1109 0.1994 0.0000
vt 0.1134 0.1994 0.0000
vt 0.1028 0.2132 0.0000
vt 0.1053 0.2132 0.0000
vt 0.1850 0.5455 0.0000
vt 0.1895 0.0619 0.0000
vt 0.1895 0.5455 0.0000
vt 0.1850 0.0619 0.0000
vt 0.1421 0.0619 0.0000
vt 0.1264 0.5455 0.0000
vt 0.1264 0.0619 0.0000
vt 0.1421 0.5455 0.0000
vt 0.1704 0.5455 0.0000
vt 0.1748 0.0619 0.0000
vt 0.1748 0.5455 0.0000
vt 0.1704 0.0619 0.0000
vt 0.1133 0.0619 0.0000
vt 0.0922 0.5455 0.0000
vt 0.0922 0.0619 0.0000
vt 0.1133 0.5455 0.0000
vt 0.8436 0.9131 0.0000
vt 0.4528 0.9092 0.0000
vt 0.8436 0.9092 0.0000
vt 0.4528 0.9131 0.0000
vt 0.2209 0.0619 0.0000
vt 0.1997 0.5455 0.0000
vt 0.1997 0.0619 0.0000
vt 0.2209 0.5455 0.0000
vt 0.1557 0.5455 0.0000
vt 0.1601 0.0619 0.0000
vt 0.1601 0.5455 0.0000
vt 0.1557 0.0619 0.0000
vt 0.0579 0.5455 0.0000
vt 0.0791 0.0619 0.0000
vt 0.0791 0.5455 0.0000
vt 0.0579 0.0619 0.0000
# 796 texture coords

o Box001
g Box001
usemtl 01___Default
s 1
f 1/1/1 2/2/2 3/3/3 
f 2/2/2 1/1/1 4/4/4 
f 5/5/5 6/6/6 7/7/7 
f 6/6/6 5/5/5 8/8/8 
f 9/9/9 10/10/10 11/11/10 
f 10/10/10 9/9/9 12/12/10 
f 13/13/11 14/14/12 15/15/13 
f 14/14/12 16/16/14 17/17/15 
f 13/13/11 16/16/14 14/14/12 
f 16/16/14 18/18/16 19/19/17 
f 13/13/11 18/18/16 16/16/14 
f 13/13/11 20/20/18 18/18/16 
f 21/21/19 22/22/20 23/23/21 
f 22/22/20 21/21/19 24/24/19 
f 25/25/22 26/26/23 27/27/24 
f 26/26/23 28/28/25 29/29/26 
f 25/25/22 28/28/25 26/26/23 
f 28/28/25 30/30/27 31/31/28 
f 25/25/22 30/30/27 28/28/25 
f 25/25/22 32/32/29 30/30/27 
f 33/33/30 12/12/10 9/9/9 
f 12/12/10 33/33/30 34/34/31 
f 35/35/32 11/11/10 10/10/10 
f 11/11/10 35/35/32 36/36/33 
f 37/37/34 38/38/35 39/39/36 
f 38/38/35 37/37/34 40/40/37 
f 41/41/38 42/42/39 43/43/40 
f 42/42/39 41/41/38 44/44/41 
f 7/45/7 24/24/19 21/21/19 
f 24/24/19 7/45/7 6/46/6 
f 4/47/4 23/23/21 22/22/20 
f 23/23/21 4/47/4 1/48/1 
f 45/49/42 46/50/43 47/51/44 
f 46/50/43 45/49/42 48/52/45 
f 49/53/46 50/54/47 51/55/48 
f 50/54/47 49/53/46 52/56/49 
f 53/57/50 54/58/51 55/59/52 
f 53/57/50 56/60/53 54/58/51 
f 53/57/50 57/61/53 56/60/53 
f 53/57/50 58/62/54 57/61/53 
f 44/44/41 59/63/55 42/42/39 
f 44/44/41 60/64/56 59/63/55 
f 44/44/41 61/65/57 60/64/56 
f 44/44/41 62/66/58 61/65/57 
f 42/67/39 63/68/59 40/69/37 
f 42/67/39 64/70/60 63/68/59 
f 42/71/39 65/72/61 64/73/60 
f 42/67/39 59/74/55 65/75/61 
f 40/40/37 66/76/62 38/38/35 
f 40/40/37 67/77/63 66/76/62 
f 40/40/37 68/78/64 67/77/63 
f 40/40/37 63/79/59 68/78/64 
f 69/80/65 70/81/66 71/82/67 
f 69/80/65 72/83/68 70/81/66 
f 69/80/65 73/84/68 72/83/68 
f 69/80/65 74/85/69 73/84/68 
f 48/52/45 75/86/70 46/50/43 
f 48/52/45 76/87/71 75/86/70 
f 48/52/45 77/88/72 76/87/71 
f 48/52/45 78/89/73 77/88/72 
f 46/90/43 79/91/74 52/92/49 
f 46/93/43 80/94/75 79/95/74 
f 46/90/43 81/96/76 80/97/75 
f 46/90/43 75/98/70 81/96/76 
f 52/56/49 82/99/77 50/54/47 
f 52/56/49 83/100/78 82/99/77 
f 52/56/49 84/101/79 83/100/78 
f 52/56/49 79/102/74 84/101/79 
f 85/103/80 61/65/57 62/66/58 
f 67/77/63 86/104/81 66/76/62 
f 64/105/60 68/78/64 63/79/59 
f 60/64/56 65/106/61 59/63/55 
f 80/107/75 84/101/79 79/102/74 
f 76/87/71 81/108/76 75/86/70 
f 87/109/82 77/88/72 78/89/73 
f 83/100/78 88/110/83 82/99/77 
f 86/111/81 89/112/84 85/113/80 
f 89/112/84 86/111/81 90/114/85 
f 85/113/80 91/115/86 61/116/57 
f 91/115/86 85/113/80 89/112/84 
f 61/117/57 92/118/87 60/119/56 
f 92/118/87 61/117/57 91/120/86 
f 60/121/56 93/122/88 65/72/61 
f 93/122/88 60/121/56 92/123/87 
f 65/72/61 94/124/89 64/73/60 
f 94/124/89 65/72/61 93/122/88 
f 64/73/60 95/125/90 68/126/64 
f 95/125/90 64/73/60 94/124/89 
f 68/127/64 96/128/91 67/129/63 
f 96/128/91 68/127/64 95/130/90 
f 67/131/63 90/114/85 86/111/81 
f 90/114/85 67/131/63 96/132/91 
f 88/133/83 97/134/92 87/135/82 
f 97/134/92 88/133/83 98/136/93 
f 87/135/82 99/137/94 77/138/72 
f 99/137/94 87/135/82 97/134/92 
f 77/139/72 100/140/95 76/141/71 
f 100/140/95 77/139/72 99/142/94 
f 76/143/71 101/144/96 81/145/76 
f 101/144/96 76/143/71 100/146/95 
f 81/145/76 102/147/97 80/94/75 
f 102/147/97 81/145/76 101/144/96 
f 80/94/75 103/148/98 84/95/79 
f 103/148/98 80/94/75 102/147/97 
f 84/149/79 104/150/99 83/151/78 
f 104/150/99 84/149/79 103/152/98 
f 83/153/78 98/136/93 88/133/83 
f 98/136/93 83/153/78 104/154/99 
f 43/43/40 105/155/100 41/41/38 
f 105/155/100 43/43/40 106/156/101 
f 106/157/101 3/3/3 105/158/100 
f 3/3/3 106/157/101 1/1/1 
f 51/55/48 107/159/102 49/53/46 
f 107/159/102 51/55/48 108/160/103 
f 108/161/103 4/4/4 107/162/102 
f 4/4/4 108/161/103 2/2/2 
f 39/39/36 109/163/104 37/37/34 
f 109/163/104 39/39/36 110/164/105 
f 110/165/105 7/7/7 109/166/104 
f 7/7/7 110/165/105 5/5/5 
f 47/51/44 111/167/106 45/49/42 
f 111/167/106 47/51/44 112/168/107 
f 112/169/107 8/8/8 111/170/106 
f 8/8/8 112/169/107 6/6/6 
f 71/171/67 113/172/108 69/173/65 
f 113/172/108 71/171/67 114/174/108 
f 114/174/108 11/11/10 113/172/108 
f 11/11/10 114/174/108 9/9/9 
f 55/175/52 115/176/10 53/177/50 
f 115/176/10 55/175/52 116/178/108 
f 116/178/108 12/12/10 115/176/10 
f 12/12/10 116/178/108 10/10/10 
f 40/69/37 117/179/21 42/67/39 
f 117/179/21 40/69/37 118/180/19 
f 118/180/19 23/23/21 117/179/21 
f 23/23/21 118/180/19 21/21/19 
f 52/92/49 119/181/19 46/90/43 
f 119/181/19 52/92/49 120/182/20 
f 120/182/20 24/24/19 119/181/19 
f 24/24/19 120/182/20 22/22/20 
f 121/183/109 114/174/108 71/171/67 
f 114/174/108 121/183/109 122/184/110 
f 122/184/110 9/9/9 114/174/108 
f 9/9/9 122/184/110 33/33/30 
f 53/177/50 123/185/111 124/186/112 
f 123/185/111 53/177/50 115/176/10 
f 115/176/10 34/34/31 123/185/111 
f 34/34/31 115/176/10 12/12/10 
f 125/187/113 116/178/108 55/175/52 
f 116/178/108 125/187/113 126/188/114 
f 126/188/114 10/10/10 116/178/108 
f 10/10/10 126/188/114 35/35/32 
f 69/173/65 127/189/115 128/190/116 
f 127/189/115 69/173/65 113/172/108 
f 113/172/108 36/36/33 127/189/115 
f 36/36/33 113/172/108 11/11/10 
f 37/191/34 118/180/19 40/69/37 
f 118/180/19 37/191/34 109/192/104 
f 109/192/104 21/21/19 118/180/19 
f 21/21/19 109/192/104 7/45/7 
f 46/90/43 112/193/107 47/194/44 
f 112/193/107 46/90/43 119/181/19 
f 119/181/19 6/46/6 112/193/107 
f 6/46/6 119/181/19 24/24/19 
f 49/195/46 120/182/20 52/92/49 
f 120/182/20 49/195/46 107/196/102 
f 107/196/102 22/22/20 120/182/20 
f 22/22/20 107/196/102 4/47/4 
f 42/67/39 106/197/101 43/198/40 
f 106/197/101 42/67/39 117/179/21 
f 117/179/21 1/48/1 106/197/101 
f 1/48/1 117/179/21 23/23/21 
f 105/199/100 129/200/117 41/201/38 
f 129/200/117 105/199/100 130/202/118 
f 41/201/38 131/203/119 44/204/41 
f 131/203/119 41/201/38 129/200/117 
f 44/204/41 132/205/120 62/116/58 
f 132/205/120 44/204/41 131/203/119 
f 62/116/58 133/206/53 85/113/80 
f 133/206/53 62/116/58 132/205/120 
f 85/113/80 134/207/53 86/111/81 
f 134/207/53 85/113/80 133/206/53 
f 86/111/81 135/208/121 66/131/62 
f 135/208/121 86/111/81 134/207/53 
f 66/131/62 136/209/122 38/210/35 
f 136/209/122 66/131/62 135/208/121 
f 38/210/35 137/211/123 39/212/36 
f 137/211/123 38/210/35 136/209/122 
f 39/212/36 138/213/124 110/214/105 
f 138/213/124 39/212/36 137/211/123 
f 110/214/105 139/215/125 5/216/5 
f 139/215/125 110/214/105 138/213/124 
f 5/216/5 140/217/126 8/218/8 
f 140/217/126 5/216/5 139/215/125 
f 8/218/8 141/219/127 111/220/106 
f 141/219/127 8/218/8 140/217/126 
f 111/220/106 142/221/128 45/222/42 
f 142/221/128 111/220/106 141/219/127 
f 45/222/42 143/223/129 48/224/45 
f 143/223/129 45/222/42 142/221/128 
f 48/224/45 144/225/130 78/138/73 
f 144/225/130 48/224/45 143/223/129 
f 78/138/73 145/226/68 87/135/82 
f 145/226/68 78/138/73 144/225/130 
f 87/135/82 146/227/68 88/133/83 
f 146/227/68 87/135/82 145/226/68 
f 88/133/83 147/228/131 82/153/77 
f 147/228/131 88/133/83 146/227/68 
f 82/153/77 148/229/132 50/230/47 
f 148/229/132 82/153/77 147/228/131 
f 50/230/47 149/231/133 51/232/48 
f 149/231/133 50/230/47 148/229/132 
f 51/232/48 150/233/134 108/234/103 
f 150/233/134 51/232/48 149/231/133 
f 108/234/103 151/235/135 2/236/2 
f 151/235/135 108/234/103 150/233/134 
f 2/236/2 152/237/136 3/238/3 
f 152/237/136 2/236/2 151/235/135 
f 3/238/3 130/202/118 105/199/100 
f 130/202/118 3/238/3 152/237/136 
f 130/202/118 125/239/113 129/200/117 
f 125/239/113 130/202/118 126/240/114 
f 129/200/117 55/59/52 131/203/119 
f 55/59/52 129/200/117 125/239/113 
f 131/203/119 54/58/51 132/205/120 
f 54/58/51 131/203/119 55/59/52 
f 132/205/120 56/60/53 133/206/53 
f 56/60/53 132/205/120 54/58/51 
f 133/206/53 57/61/53 134/207/53 
f 57/61/53 133/206/53 56/60/53 
f 134/207/53 58/62/54 135/208/121 
f 58/62/54 134/207/53 57/61/53 
f 135/208/121 53/57/50 136/209/122 
f 53/57/50 135/208/121 58/62/54 
f 136/209/122 124/241/112 137/211/123 
f 124/241/112 136/209/122 53/57/50 
f 137/211/123 123/242/111 138/213/124 
f 123/242/111 137/211/123 124/241/112 
f 138/213/124 34/243/31 139/215/125 
f 34/243/31 138/213/124 123/242/111 
f 139/215/125 33/244/30 140/217/126 
f 33/244/30 139/215/125 34/243/31 
f 140/217/126 122/245/110 141/219/127 
f 122/245/110 140/217/126 33/244/30 
f 141/219/127 121/246/109 142/221/128 
f 121/246/109 141/219/127 122/245/110 
f 142/221/128 71/82/67 143/223/129 
f 71/82/67 142/221/128 121/246/109 
f 143/223/129 70/81/66 144/225/130 
f 70/81/66 143/223/129 71/82/67 
f 144/225/130 72/83/68 145/226/68 
f 72/83/68 144/225/130 70/81/66 
f 145/226/68 73/84/68 146/227/68 
f 73/84/68 145/226/68 72/83/68 
f 146/227/68 74/85/69 147/228/131 
f 74/85/69 146/227/68 73/84/68 
f 147/228/131 69/80/65 148/229/132 
f 69/80/65 147/228/131 74/85/69 
f 148/229/132 128/247/116 149/231/133 
f 128/247/116 148/229/132 69/80/65 
f 149/231/133 127/248/115 150/233/134 
f 127/248/115 149/231/133 128/247/116 
f 150/233/134 36/249/33 151/235/135 
f 36/249/33 150/233/134 127/248/115 
f 151/235/135 35/250/32 152/237/136 
f 35/250/32 151/235/135 36/249/33 
f 152/237/136 126/240/114 130/202/118 
f 126/240/114 152/237/136 35/250/32 
f 90/114/85 19/251/17 89/112/84 
f 19/251/17 90/114/85 16/252/14 
f 89/112/84 18/253/16 91/115/86 
f 18/253/16 89/112/84 19/251/17 
f 153/254/137 154/255/138 155/256/139 
f 154/255/138 153/254/137 156/257/140 
f 92/123/87 13/258/11 93/122/88 
f 13/258/11 92/123/87 20/259/18 
f 93/122/88 15/260/13 94/124/89 
f 15/260/13 93/122/88 13/258/11 
f 94/124/89 14/261/12 95/125/90 
f 14/261/12 94/124/89 15/260/13 
f 95/130/90 17/262/15 96/128/91 
f 17/262/15 95/130/90 14/263/12 
f 96/132/91 16/252/14 90/114/85 
f 16/252/14 96/132/91 17/264/15 
f 98/136/93 27/265/24 97/134/92 
f 27/265/24 98/136/93 25/266/22 
f 97/134/92 26/267/23 99/137/94 
f 26/267/23 97/134/92 27/265/24 
f 99/142/94 29/268/26 100/140/95 
f 29/268/26 99/142/94 26/269/23 
f 100/146/95 28/270/25 101/144/96 
f 28/270/25 100/146/95 29/271/26 
f 101/144/96 31/272/28 102/147/97 
f 31/272/28 101/144/96 28/270/25 
f 102/147/97 30/273/27 103/148/98 
f 30/273/27 102/147/97 31/272/28 
f 157/274/138 158/275/137 159/276/140 
f 158/275/137 157/274/138 160/277/139 
f 104/154/99 25/266/22 98/136/93 
f 25/266/22 104/154/99 32/278/29 
f 91/279/86 161/280/141 92/281/87 
f 161/280/141 91/279/86 162/282/142 
f 92/123/87 163/283/143 20/259/18 
f 163/283/143 92/123/87 161/284/141 
f 20/20/18 164/285/144 18/18/16 
f 164/285/144 20/20/18 163/286/143 
f 18/253/16 162/287/142 91/115/86 
f 162/287/142 18/253/16 164/288/144 
f 103/289/98 165/290/144 104/291/99 
f 165/290/144 103/289/98 166/292/143 
f 104/293/99 167/294/142 32/295/29 
f 167/294/142 104/293/99 165/296/144 
f 32/32/29 168/297/141 30/30/27 
f 168/297/141 32/32/29 167/298/142 
f 30/273/27 166/299/143 103/148/98 
f 166/299/143 30/273/27 168/300/141 
f 162/282/142 169/301/145 161/280/141 
f 169/301/145 162/282/142 170/302/146 
f 161/284/141 171/303/147 163/283/143 
f 171/303/147 161/284/141 169/304/145 
f 163/286/143 172/305/148 164/285/144 
f 172/305/148 163/286/143 171/306/147 
f 164/288/144 170/307/146 162/287/142 
f 170/307/146 164/288/144 172/308/148 
f 166/292/143 173/309/149 165/290/144 
f 173/309/149 166/292/143 174/310/147 
f 165/296/144 175/311/146 167/294/142 
f 175/311/146 165/296/144 173/312/149 
f 167/298/142 176/313/145 168/297/141 
f 176/313/145 167/298/142 175/314/146 
f 168/300/141 174/315/147 166/299/143 
f 174/315/147 168/300/141 176/316/145 
f 170/302/146 177/317/150 169/301/145 
f 177/317/150 170/302/146 178/318/151 
f 169/304/145 179/319/152 171/303/147 
f 179/319/152 169/304/145 177/320/150 
f 171/306/147 180/321/153 172/305/148 
f 180/321/153 171/306/147 179/322/152 
f 172/308/148 178/323/151 170/307/146 
f 178/323/151 172/308/148 180/324/153 
f 174/310/147 181/325/153 173/309/149 
f 181/325/153 174/310/147 182/326/152 
f 173/312/149 183/327/154 175/311/146 
f 183/327/154 173/312/149 181/328/153 
f 175/314/146 184/329/150 176/313/145 
f 184/329/150 175/314/146 183/330/154 
f 176/316/145 182/331/152 174/315/147 
f 182/331/152 176/316/145 184/332/150 
f 178/318/151 185/333/145 177/317/150 
f 185/333/145 178/318/151 186/334/155 
f 177/320/150 187/335/156 179/319/152 
f 187/335/156 177/320/150 185/336/145 
f 179/322/152 188/337/148 180/321/153 
f 188/337/148 179/322/152 187/338/156 
f 180/324/153 186/339/155 178/323/151 
f 186/339/155 180/324/153 188/340/148 
f 182/326/152 189/341/148 181/325/153 
f 189/341/148 182/326/152 190/342/156 
f 181/328/153 191/343/155 183/327/154 
f 191/343/155 181/328/153 189/344/148 
f 183/330/154 192/345/145 184/329/150 
f 192/345/145 183/330/154 191/346/155 
f 184/332/150 190/347/156 182/331/152 
f 190/347/156 184/332/150 192/348/145 
f 186/349/155 193/350/157 185/351/145 
f 193/350/157 186/349/155 194/352/158 
f 185/336/145 195/353/159 187/335/156 
f 195/353/159 185/336/145 193/354/157 
f 187/355/156 196/356/160 188/357/148 
f 196/356/160 187/355/156 195/358/159 
f 188/340/148 194/359/158 186/339/155 
f 194/359/158 188/340/148 196/360/160 
f 190/361/156 197/362/160 189/363/148 
f 197/362/160 190/361/156 198/364/159 
f 189/344/148 199/365/158 191/343/155 
f 199/365/158 189/344/148 197/366/160 
f 191/367/155 200/368/157 192/369/145 
f 200/368/157 191/367/155 199/370/158 
f 192/348/145 198/371/159 190/347/156 
f 198/371/159 192/348/145 200/372/157 
f 194/373/158 201/374/141 193/375/157 
f 201/374/141 194/373/158 202/376/142 
f 193/354/157 203/377/143 195/353/159 
f 203/377/143 193/354/157 201/378/141 
f 195/379/159 204/380/144 196/381/160 
f 204/380/144 195/379/159 203/382/143 
f 196/360/160 202/383/142 194/359/158 
f 202/383/142 196/360/160 204/384/144 
f 198/385/159 205/386/144 197/387/160 
f 205/386/144 198/385/159 206/388/143 
f 197/366/160 207/389/142 199/365/158 
f 207/389/142 197/366/160 205/390/144 
f 199/391/158 208/392/141 200/393/157 
f 208/392/141 199/391/158 207/394/142 
f 200/372/157 206/395/143 198/371/159 
f 206/395/143 200/372/157 208/396/141 
f 202/376/142 209/397/145 201/374/141 
f 209/397/145 202/376/142 210/398/155 
f 201/378/141 211/399/156 203/377/143 
f 211/399/156 201/378/141 209/400/145 
f 203/382/143 212/401/148 204/380/144 
f 212/401/148 203/382/143 211/402/156 
f 204/384/144 210/403/155 202/383/142 
f 210/403/155 204/384/144 212/404/148 
f 206/388/143 213/405/148 205/386/144 
f 213/405/148 206/388/143 214/406/156 
f 205/390/144 215/407/155 207/389/142 
f 215/407/155 205/390/144 213/408/148 
f 207/394/142 216/409/145 208/392/141 
f 216/409/145 207/394/142 215/410/155 
f 208/396/141 214/411/156 206/395/143 
f 214/411/156 208/396/141 216/412/145 
f 210/413/155 217/414/150 209/415/145 
f 217/414/150 210/413/155 218/416/151 
f 209/400/145 219/417/152 211/399/156 
f 219/417/152 209/400/145 217/418/150 
f 211/419/156 220/420/161 212/421/148 
f 220/420/161 211/419/156 219/422/152 
f 212/404/148 218/423/151 210/403/155 
f 218/423/151 212/404/148 220/424/161 
f 214/425/156 221/426/161 213/427/148 
f 221/426/161 214/425/156 222/428/152 
f 213/408/148 223/429/151 215/407/155 
f 223/429/151 213/408/148 221/430/161 
f 215/431/155 224/432/150 216/433/145 
f 224/432/150 215/431/155 223/434/151 
f 216/412/145 222/435/152 214/411/156 
f 222/435/152 216/412/145 224/436/150 
f 218/437/151 225/438/145 217/439/150 
f 225/438/145 218/437/151 226/440/146 
f 217/418/150 227/441/147 219/417/152 
f 227/441/147 217/418/150 225/442/145 
f 219/443/152 228/444/148 220/445/161 
f 228/444/148 219/443/152 227/446/147 
f 220/424/161 226/447/146 218/423/151 
f 226/447/146 220/424/161 228/448/148 
f 222/449/152 229/450/149 221/451/161 
f 229/450/149 222/449/152 230/452/147 
f 221/430/161 231/453/146 223/429/151 
f 231/453/146 221/430/161 229/454/149 
f 223/455/151 232/456/145 224/457/150 
f 232/456/145 223/455/151 231/458/146 
f 224/436/150 230/459/147 222/435/152 
f 230/459/147 224/436/150 232/460/145 
f 226/461/146 233/462/157 225/463/145 
f 233/462/157 226/461/146 234/464/158 
f 225/442/145 235/465/159 227/441/147 
f 235/465/159 225/442/145 233/466/157 
f 227/467/147 236/468/160 228/469/148 
f 236/468/160 227/467/147 235/470/159 
f 228/448/148 234/471/158 226/447/146 
f 234/471/158 228/448/148 236/472/160 
f 230/473/147 237/474/160 229/475/149 
f 237/474/160 230/473/147 238/476/159 
f 229/454/149 239/477/158 231/453/146 
f 239/477/158 229/454/149 237/478/160 
f 231/479/146 240/480/157 232/481/145 
f 240/480/157 231/479/146 239/482/158 
f 232/460/145 238/483/159 230/459/147 
f 238/483/159 232/460/145 240/484/157 
f 234/464/158 241/485/141 233/462/157 
f 241/485/141 234/464/158 242/486/142 
f 233/466/157 243/487/143 235/465/159 
f 243/487/143 233/466/157 241/488/141 
f 235/470/159 244/489/144 236/468/160 
f 244/489/144 235/470/159 243/490/143 
f 236/472/160 242/491/142 234/471/158 
f 242/491/142 236/472/160 244/492/144 
f 238/476/159 245/493/144 237/474/160 
f 245/493/144 238/476/159 246/494/143 
f 237/478/160 247/495/142 239/477/158 
f 247/495/142 237/478/160 245/496/144 
f 239/482/158 248/497/141 240/480/157 
f 248/497/141 239/482/158 247/498/142 
f 240/484/157 246/499/143 238/483/159 
f 246/499/143 240/484/157 248/500/141 
f 242/501/142 249/502/162 241/503/141 
f 249/502/162 242/501/142 250/504/146 
f 241/488/141 251/505/147 243/487/143 
f 251/505/147 241/488/141 249/506/162 
f 243/507/143 252/508/149 244/509/144 
f 252/508/149 243/507/143 251/510/147 
f 244/492/144 250/511/146 242/491/142 
f 250/511/146 244/492/144 252/512/149 
f 246/513/143 253/514/149 245/515/144 
f 253/514/149 246/513/143 254/516/147 
f 245/496/144 255/517/146 247/495/142 
f 255/517/146 245/496/144 253/518/149 
f 247/519/142 256/520/162 248/521/141 
f 256/520/162 247/519/142 255/522/146 
f 248/500/141 254/523/147 246/499/143 
f 254/523/147 248/500/141 256/524/162 
f 250/525/146 257/526/157 249/527/162 
f 257/526/157 250/525/146 258/528/158 
f 249/506/162 259/529/159 251/505/147 
f 259/529/159 249/506/162 257/530/157 
f 251/531/147 260/532/160 252/533/149 
f 260/532/160 251/531/147 259/534/159 
f 252/512/149 258/535/158 250/511/146 
f 258/535/158 252/512/149 260/536/160 
f 254/537/147 261/538/160 253/539/149 
f 261/538/160 254/537/147 262/540/159 
f 253/518/149 263/541/158 255/517/146 
f 263/541/158 253/518/149 261/542/160 
f 255/543/146 264/544/157 256/545/162 
f 264/544/157 255/543/146 263/546/158 
f 256/524/162 262/547/159 254/523/147 
f 262/547/159 256/524/162 264/548/157 
f 258/528/158 265/549/141 257/526/157 
f 265/549/141 258/528/158 266/550/142 
f 257/530/157 267/551/143 259/529/159 
f 267/551/143 257/530/157 265/552/141 
f 259/534/159 268/553/144 260/532/160 
f 268/553/144 259/534/159 267/554/143 
f 260/536/160 266/555/142 258/535/158 
f 266/555/142 260/536/160 268/556/144 
f 262/540/159 269/557/144 261/538/160 
f 269/557/144 262/540/159 270/558/143 
f 261/542/160 271/559/142 263/541/158 
f 271/559/142 261/542/160 269/560/144 
f 263/546/158 272/561/141 264/544/157 
f 272/561/141 263/546/158 271/562/142 
f 264/548/157 270/563/143 262/547/159 
f 270/563/143 264/548/157 272/564/141 
f 266/565/142 273/566/163 265/567/141 
f 273/566/163 266/565/142 274/568/164 
f 265/552/141 275/569/165 267/551/143 
f 275/569/165 265/552/141 273/570/163 
f 267/571/143 276/572/166 268/573/144 
f 276/572/166 267/571/143 275/574/165 
f 268/556/144 274/575/164 266/555/142 
f 274/575/164 268/556/144 276/576/166 
f 270/577/143 277/578/166 269/579/144 
f 277/578/166 270/577/143 278/580/167 
f 269/560/144 279/581/164 271/559/142 
f 279/581/164 269/560/144 277/582/166 
f 271/583/142 280/584/163 272/585/141 
f 280/584/163 271/583/142 279/586/164 
f 272/564/141 278/587/167 270/563/143 
f 278/587/167 272/564/141 280/588/163 
f 274/568/164 155/589/139 273/566/163 
f 155/589/139 274/568/164 153/590/137 
f 281/591/168 282/592/169 283/593/170 
f 282/592/169 281/591/168 284/594/171 
f 275/574/165 156/595/140 276/572/166 
f 156/595/140 275/574/165 154/596/138 
f 285/597/172 286/598/173 287/599/174 
f 286/598/173 285/597/172 288/600/175 
f 278/580/167 159/601/140 277/578/166 
f 159/601/140 278/580/167 157/602/138 
f 289/603/172 290/604/176 291/605/177 
f 290/604/176 289/603/172 292/606/175 
f 279/586/164 160/607/139 280/584/163 
f 160/607/139 279/586/164 158/608/137 
f 293/609/178 294/610/179 295/611/180 
f 294/610/179 293/609/178 296/612/181 
f 273/613/163 297/614/182 275/615/165 
f 297/614/182 273/613/163 298/616/183 
f 275/574/165 299/617/184 154/596/138 
f 299/617/184 275/574/165 297/618/182 
f 154/255/138 300/619/185 155/256/139 
f 300/619/185 154/255/138 299/620/184 
f 155/589/139 298/621/183 273/566/163 
f 298/621/183 155/589/139 300/622/185 
f 276/623/166 301/624/186 274/625/164 
f 301/624/186 276/623/166 302/626/187 
f 274/568/164 303/627/188 153/590/137 
f 303/627/188 274/568/164 301/628/186 
f 153/254/137 304/629/189 156/257/140 
f 304/629/189 153/254/137 303/630/188 
f 156/595/140 302/631/187 276/572/166 
f 302/631/187 156/595/140 304/632/189 
f 277/633/166 305/634/186 279/635/164 
f 305/634/186 277/633/166 306/636/187 
f 279/586/164 307/637/188 158/608/137 
f 307/637/188 279/586/164 305/638/186 
f 158/275/137 308/639/189 159/276/140 
f 308/639/189 158/275/137 307/640/188 
f 159/601/140 306/641/187 277/578/166 
f 306/641/187 159/601/140 308/642/189 
f 280/643/163 309/644/182 278/645/167 
f 309/644/182 280/643/163 310/646/190 
f 278/580/167 311/647/184 157/602/138 
f 311/647/184 278/580/167 309/648/182 
f 157/274/138 312/649/185 160/277/139 
f 312/649/185 157/274/138 311/650/184 
f 160/607/139 310/651/190 280/584/163 
f 310/651/190 160/607/139 312/652/185 
f 298/616/183 313/653/191 297/614/182 
f 313/653/191 298/616/183 314/654/192 
f 297/618/182 315/655/193 299/617/184 
f 315/655/193 297/618/182 313/656/191 
f 299/620/184 316/657/194 300/619/185 
f 316/657/194 299/620/184 315/658/193 
f 300/622/185 314/659/192 298/621/183 
f 314/659/192 300/622/185 316/660/194 
f 302/626/187 317/661/195 301/624/186 
f 317/661/195 302/626/187 318/662/196 
f 301/628/186 319/663/197 303/627/188 
f 319/663/197 301/628/186 317/664/195 
f 303/630/188 320/665/198 304/629/189 
f 320/665/198 303/630/188 319/666/197 
f 304/632/189 318/667/196 302/631/187 
f 318/667/196 304/632/189 320/668/198 
f 306/636/187 321/669/195 305/634/186 
f 321/669/195 306/636/187 322/670/196 
f 305/638/186 323/671/197 307/637/188 
f 323/671/197 305/638/186 321/672/195 
f 307/640/188 324/673/198 308/639/189 
f 324/673/198 307/640/188 323/674/197 
f 308/642/189 322/675/196 306/641/187 
f 322/675/196 308/642/189 324/676/198 
f 310/646/190 325/677/191 309/644/182 
f 325/677/191 310/646/190 326/678/192 
f 309/648/182 327/679/193 311/647/184 
f 327/679/193 309/648/182 325/680/191 
f 311/650/184 328/681/194 312/649/185 
f 328/681/194 311/650/184 327/682/193 
f 312/652/185 326/683/192 310/651/190 
f 326/683/192 312/652/185 328/684/194 
f 314/654/192 329/685/199 313/653/191 
f 329/685/199 314/654/192 330/686/200 
f 313/656/191 331/687/201 315/655/193 
f 331/687/201 313/656/191 329/688/199 
f 315/658/193 332/689/202 316/657/194 
f 332/689/202 315/658/193 331/690/201 
f 318/662/196 333/691/203 317/661/195 
f 333/691/203 318/662/196 334/692/204 
f 319/666/197 335/693/205 320/665/198 
f 335/693/205 319/666/197 336/694/206 
f 320/668/198 334/695/204 318/667/196 
f 334/695/204 320/668/198 335/696/205 
f 322/670/196 337/697/203 321/669/195 
f 337/697/203 322/670/196 338/698/204 
f 321/672/195 339/699/206 323/671/197 
f 339/699/206 321/672/195 337/700/203 
f 323/674/197 340/701/205 324/673/198 
f 340/701/205 323/674/197 339/702/206 
f 326/678/192 341/703/199 325/677/191 
f 341/703/199 326/678/192 342/704/200 
f 327/682/193 343/705/202 328/681/194 
f 343/705/202 327/682/193 344/706/201 
f 328/684/194 342/707/200 326/683/192 
f 342/707/200 328/684/194 343/708/202 
f 330/686/200 283/709/170 329/685/199 
f 283/709/170 330/686/200 281/710/168 
f 329/688/199 282/711/169 331/687/201 
f 282/711/169 329/688/199 283/712/170 
f 331/690/201 284/713/171 332/689/202 
f 284/713/171 331/690/201 282/714/169 
f 332/715/202 281/716/168 330/717/200 
f 281/716/168 332/715/202 284/718/171 
f 334/692/204 287/719/174 333/691/203 
f 287/719/174 334/692/204 285/720/172 
f 333/721/203 286/722/173 336/723/206 
f 286/722/173 333/721/203 287/724/174 
f 336/694/206 288/725/175 335/693/205 
f 288/725/175 336/694/206 286/726/173 
f 335/696/205 285/727/172 334/695/204 
f 285/727/172 335/696/205 288/728/175 
f 338/698/204 291/729/177 337/697/203 
f 291/729/177 338/698/204 289/730/172 
f 337/700/203 290/731/176 339/699/206 
f 290/731/176 337/700/203 291/732/177 
f 339/702/206 292/733/175 340/701/205 
f 292/733/175 339/702/206 290/734/176 
f 340/735/205 289/736/172 338/737/204 
f 289/736/172 340/735/205 292/738/175 
f 342/704/200 295/739/180 341/703/199 
f 295/739/180 342/704/200 293/740/178 
f 341/741/199 294/742/179 344/743/201 
f 294/742/179 341/741/199 295/744/180 
f 344/706/201 296/745/181 343/705/202 
f 296/745/181 344/706/201 294/746/179 
f 343/708/202 293/747/178 342/707/200 
f 293/747/178 343/708/202 296/748/181 
f 316/660/194 345/749/207 314/659/192 
f 345/749/207 316/660/194 346/750/208 
f 314/659/192 347/751/209 330/717/200 
f 347/751/209 314/659/192 345/749/207 
f 330/717/200 348/752/210 332/715/202 
f 348/752/210 330/717/200 347/751/209 
f 332/715/202 346/750/208 316/660/194 
f 346/750/208 332/715/202 348/752/210 
f 317/664/195 349/753/211 319/663/197 
f 349/753/211 317/664/195 350/754/212 
f 319/663/197 351/755/213 336/723/206 
f 351/755/213 319/663/197 349/753/211 
f 336/723/206 352/756/214 333/721/203 
f 352/756/214 336/723/206 351/755/213 
f 333/721/203 350/754/212 317/664/195 
f 350/754/212 333/721/203 352/756/214 
f 324/676/198 353/757/215 322/675/196 
f 353/757/215 324/676/198 354/758/216 
f 322/675/196 355/759/217 338/737/204 
f 355/759/217 322/675/196 353/757/215 
f 338/737/204 356/760/218 340/735/205 
f 356/760/218 338/737/204 355/759/217 
f 340/735/205 354/758/216 324/676/198 
f 354/758/216 340/735/205 356/760/218 
f 325/680/191 357/761/219 327/679/193 
f 357/761/219 325/680/191 358/762/220 
f 327/679/193 359/763/221 344/743/201 
f 359/763/221 327/679/193 357/761/219 
f 344/743/201 360/764/222 341/741/199 
f 360/764/222 344/743/201 359/763/221 
f 341/741/199 358/762/220 325/680/191 
f 358/762/220 341/741/199 360/764/222 
f 347/765/209 359/766/221 348/767/210 
f 359/766/221 347/765/209 360/768/222 
f 348/769/210 357/770/219 346/771/208 
f 357/770/219 348/769/210 359/772/221 
f 346/773/208 358/774/220 345/775/207 
f 358/774/220 346/773/208 357/776/219 
f 345/777/207 360/778/222 347/779/209 
f 360/778/222 345/777/207 358/780/220 
f 351/781/213 355/782/217 352/783/214 
f 355/782/217 351/781/213 356/784/218 
f 352/785/214 353/786/215 350/787/212 
f 353/786/215 352/785/214 355/788/217 
f 350/789/212 354/790/216 349/791/211 
f 354/790/216 350/789/212 353/792/215 
f 349/793/211 356/794/218 351/795/213 
f 356/794/218 349/793/211 354/796/216 
# 0 polygons - 724 triangles

